<?xml version="1.0" encoding="UTF-8" standalone="no"?>
<!DOCTYPE svg PUBLIC "-//W3C//DTD SVG 1.1//EN" "http://www.w3.org/Graphics/SVG/1.1/DTD/svg11.dtd">
<svg width="100%" height="100%" viewBox="0 0 100 90" version="1.1" xmlns="http://www.w3.org/2000/svg" xmlns:xlink="http://www.w3.org/1999/xlink" xml:space="preserve" xmlns:serif="http://www.serif.com/" style="fill-rule:evenodd;clip-rule:evenodd;stroke-linejoin:round;stroke-miterlimit:2;">
    <g transform="matrix(1.08105,0,0,1.08105,-123.21,-9.33854)">
        <g opacity="0.6">
            <g transform="matrix(1,0,0,1,110.5,4.5)">
                <path d="M10.923,49.21C10.435,49.327 9.61,49.412 9.437,49.447C8.797,49.577 8.163,49.724 7.533,49.893C6.576,50.15 5.678,50.542 4.835,51.048C5.799,50.173 6.482,48.917 7.32,47.947L7.338,47.915C7.699,48.062 8.064,48.19 8.402,48.214C8.846,48.246 9.297,47.92 9.66,47.459C10.041,47.775 10.414,48.1 10.801,48.409L10.961,48.46C10.971,48.649 10.951,48.817 10.88,48.937C10.816,49.044 10.852,49.146 10.923,49.21ZM4.594,50.64C4.462,49.391 4.481,48.074 4.112,46.89C4.711,46.789 5.886,47.35 6.328,47.501C6.511,47.563 6.705,47.645 6.904,47.731C6.493,48.216 6.111,48.724 5.727,49.23C5.378,49.69 5.021,50.219 4.594,50.64ZM7.907,45.789C8.456,45.755 9.416,45.757 9.943,45.36C10.016,45.716 9.79,46.388 9.443,46.927L9.344,47.074C9.032,47.503 8.645,47.807 8.287,47.716C7.746,47.578 7.209,47.323 6.681,47.136C6.051,46.913 4.782,46.277 3.979,46.443C4.693,45.573 6.9,45.85 7.907,45.789ZM10.338,46.123C10.404,46.348 10.472,46.573 10.534,46.799C10.6,47.035 10.753,47.446 10.858,47.858C10.545,47.599 10.236,47.337 9.923,47.079C10.107,46.773 10.252,46.44 10.338,46.123ZM11.599,48.973L11.473,48.89L11.382,48.844C11.453,48.373 11.255,47.774 11.162,47.38C10.97,46.564 10.681,45.771 10.494,44.954C10.461,44.811 10.337,44.769 10.226,44.797C10.143,44.653 9.926,44.593 9.842,44.783C9.471,45.614 6.966,45.374 6.216,45.417C5.429,45.463 4.198,45.442 3.648,46.121L3.609,46.195C3.506,46.252 3.433,46.379 3.496,46.516L3.587,46.755L3.634,46.877C4.098,48.17 4.016,49.672 4.188,51.053L4.218,51.272L4.239,51.425C4.1,51.565 4.195,51.797 4.354,51.825C4.466,51.918 4.67,51.853 4.729,51.705L4.76,51.627C6,50.834 7.354,50.387 8.791,50.056C9.367,49.923 11.437,49.857 11.682,49.289C11.731,49.174 11.718,49.041 11.599,48.973Z" style="fill:white;fill-rule:nonzero;"/>
            </g>
            <g transform="matrix(1,0,0,1,110.5,4.5)">
                <path d="M90.49,50.435C90.639,49.638 90.787,48.841 90.965,48.053C91.138,48.139 91.303,48.225 91.459,48.314C91.316,48.972 91.184,49.633 91.047,50.293C90.854,50.36 90.662,50.409 90.49,50.435ZM91.926,44.978C92.092,44.953 92.251,44.937 92.398,44.931C92.047,45.886 91.786,46.868 91.56,47.86C91.402,47.767 91.237,47.68 91.073,47.596C91.292,46.702 91.56,45.823 91.926,44.978ZM90.238,47.149C88.802,46.238 90.124,45.407 91.439,45.077C91.131,45.833 90.894,46.613 90.698,47.406C90.535,47.322 90.378,47.238 90.238,47.149ZM91.507,50.094C91.612,49.579 91.716,49.065 91.826,48.552C92.617,49.169 92.173,49.741 91.507,50.094ZM91.391,50.661C92.071,50.406 92.701,49.93 92.646,49.266C92.603,48.75 92.31,48.39 91.924,48.101C92.163,47.032 92.441,45.975 92.829,44.951C93.056,44.987 93.209,45.067 93.237,45.202C93.292,45.463 93.687,45.341 93.633,45.082C93.573,44.799 93.33,44.626 92.991,44.54C93.068,44.353 93.149,44.166 93.235,43.981C93.347,43.741 92.984,43.544 92.871,43.786C92.764,44.016 92.666,44.248 92.572,44.482C92.438,44.475 92.299,44.475 92.153,44.486C92.232,44.324 92.315,44.164 92.403,44.005C92.532,43.771 92.167,43.577 92.038,43.81C91.903,44.054 91.782,44.302 91.667,44.552C90.408,44.794 89.055,45.581 89.283,46.564C89.429,47.191 89.991,47.554 90.588,47.863C90.392,48.72 90.231,49.588 90.068,50.454C89.378,50.421 87.897,50.206 87.733,49.544C87.669,49.284 87.274,49.406 87.338,49.664C87.562,50.569 89.113,50.786 89.992,50.855C89.871,51.483 89.746,52.11 89.599,52.728C89.546,52.95 89.888,53.089 89.983,52.871C90.043,52.732 90.059,52.67 90.064,52.545C90.19,51.992 90.301,51.433 90.407,50.872C90.569,50.866 90.752,50.841 90.942,50.797C90.817,51.387 90.685,51.975 90.534,52.557C90.467,52.815 90.87,52.906 90.937,52.648C91.107,51.991 91.253,51.327 91.391,50.661Z" style="fill:white;fill-rule:nonzero;"/>
            </g>
            <g transform="matrix(1,0,0,1,110.5,4.5)">
                <path d="M26.135,52.752C25.89,51.98 25.645,51.206 25.431,50.427C25.624,50.421 25.81,50.419 25.99,50.424C26.174,51.072 26.369,51.718 26.56,52.364C26.421,52.514 26.274,52.648 26.135,52.752ZM24.829,47.263C24.963,47.162 25.096,47.073 25.223,46.999C25.363,48.007 25.596,48.996 25.865,49.977C25.681,49.97 25.495,49.97 25.311,49.974C25.082,49.082 24.904,48.181 24.829,47.263ZM24.363,49.973C22.668,49.847 23.442,48.49 24.446,47.58C24.531,48.391 24.69,49.191 24.89,49.983C24.707,49.985 24.529,49.985 24.363,49.973ZM26.871,51.971C26.721,51.468 26.57,50.965 26.425,50.461C27.414,50.633 27.292,51.347 26.871,51.971ZM27.036,52.526C27.516,51.981 27.847,51.264 27.485,50.705C27.204,50.27 26.776,50.09 26.3,50.018C26.006,48.962 25.753,47.899 25.612,46.813C25.829,46.738 26.002,46.737 26.091,46.842C26.262,47.047 26.553,46.753 26.383,46.55C26.197,46.328 25.901,46.29 25.561,46.374C25.541,46.172 25.525,45.97 25.514,45.766C25.499,45.501 25.086,45.5 25.1,45.766C25.114,46.019 25.137,46.27 25.164,46.52C25.043,46.577 24.921,46.643 24.797,46.722C24.791,46.542 24.788,46.361 24.79,46.179C24.794,45.913 24.381,45.913 24.377,46.179C24.373,46.458 24.383,46.734 24.399,47.009C23.404,47.816 22.581,49.148 23.246,49.907C23.67,50.391 24.336,50.447 25.009,50.438C25.24,51.286 25.507,52.127 25.772,52.968C25.148,53.264 23.74,53.772 23.283,53.266C23.104,53.067 22.813,53.361 22.991,53.558C23.616,54.25 25.086,53.711 25.893,53.357C26.084,53.968 26.268,54.58 26.43,55.194C26.488,55.416 26.855,55.376 26.836,55.14C26.823,54.989 26.808,54.926 26.754,54.814C26.604,54.267 26.439,53.722 26.268,53.177C26.408,53.095 26.557,52.987 26.704,52.858C26.872,53.438 27.033,54.018 27.174,54.603C27.237,54.862 27.635,54.752 27.573,54.493C27.413,53.834 27.228,53.179 27.036,52.526Z" style="fill:white;fill-rule:nonzero;"/>
            </g>
            <g transform="matrix(1,0,0,1,110.5,4.5)">
                <path d="M86.252,16.006C85.231,17.22 83.781,16.788 82.457,17.208C82.151,17.304 81.984,17.519 81.815,17.773C81.425,18.357 81.277,18.918 80.758,19.444C80.089,20.121 79.217,20.667 78.328,21.16C78.995,20.39 79.507,19.445 79.923,18.534C80.021,18.319 79.824,18.117 79.607,18.218C77.648,19.129 75.107,17.318 75.71,15.187C76.102,13.801 77.212,12.794 78.414,12.095C80.654,10.793 84,10.412 85.977,12.356C87.003,13.365 87.193,14.888 86.252,16.006ZM84.367,10.827C81.519,9.811 77.677,11.284 75.951,13.652C75.22,14.655 74.671,16.318 75.562,17.394C76.459,18.48 77.918,19.142 79.283,18.811C78.506,20.399 77.386,22.081 75.522,22.309C75.231,22.344 75.227,22.806 75.522,22.77C75.893,22.725 76.235,22.627 76.555,22.494L76.792,22.508C78.45,21.601 80.664,20.638 81.735,18.999C81.932,18.697 82.047,18.326 82.213,18.006C82.548,17.357 83.676,17.479 84.277,17.437C84.973,17.389 85.607,17.178 86.149,16.724C88.541,14.72 86.866,11.72 84.367,10.827Z" style="fill:white;fill-rule:nonzero;"/>
            </g>
            <g transform="matrix(1,0,0,1,110.5,4.5)">
                <path d="M90.455,68.701C90.028,68.208 89.147,67.753 88.48,67.822C88.188,67.853 88.185,68.315 88.48,68.284C88.728,68.258 89.008,68.323 89.276,68.436C88.612,68.883 87.406,68.629 86.666,68.552C85.691,68.45 84.726,68.268 83.75,68.176C82.448,68.053 80.367,67.633 79.135,68.383L79.135,63.716C79.779,62.752 81.129,62.43 81.946,63.504C82.251,63.906 82.324,64.504 82.447,64.982C82.62,65.655 83.044,66.547 83.833,66.639C84.772,66.749 85.535,66.152 86.225,65.589C86.589,65.292 89.649,62.712 89.666,62.747C89.793,63.016 90.191,62.782 90.064,62.514L90.033,62.449L89.834,62.335C88.629,62.461 87.556,63.807 86.722,64.544C86.161,65.04 85.608,65.539 84.966,65.929C83.663,66.72 83.037,65.459 82.776,64.4C82.507,63.307 81.981,62.595 80.836,62.367C80.174,62.235 79.58,62.523 79.135,62.974L79.135,60.307C79.281,60.669 79.421,61.033 79.49,61.423C79.542,61.716 79.986,61.591 79.935,61.3C79.777,60.409 79.208,59.647 79.132,58.738C79.107,58.438 78.701,58.443 78.671,58.738C78.584,59.57 78.07,60.275 78.097,61.131C78.106,61.428 78.568,61.429 78.558,61.131C78.55,60.857 78.601,60.596 78.674,60.339L78.674,63.587C78.584,63.745 78.509,63.907 78.451,64.069C78.391,64.24 78.532,64.35 78.674,64.348L78.674,68.424C78.674,68.535 78.738,68.604 78.818,68.633C78.689,68.828 78.978,69.087 79.183,68.909C79.931,68.258 81.385,68.476 82.298,68.532C83.108,68.582 83.917,68.645 84.721,68.756C85.859,68.913 87.754,69.471 89.008,69.073L89.119,69.083C89.258,69.064 89.389,69.087 89.516,69.134C89.243,69.342 88.969,69.546 88.65,69.677C88.378,69.788 88.497,70.234 88.772,70.122C89.388,69.87 89.838,69.389 90.408,69.063C90.544,68.985 90.55,68.811 90.455,68.701Z" style="fill:white;fill-rule:nonzero;"/>
            </g>
            <g transform="matrix(1,0,0,1,110.5,4.5)">
                <path d="M82.305,40.754C82.11,40.922 81.908,40.998 81.707,41.017L81.524,41.022L81.409,40.999L81.252,40.889L81.125,40.903C80.956,40.82 80.795,40.697 80.644,40.55C81.227,40.093 81.744,39.485 82.038,38.827C83.199,37.989 84.414,37.25 85.707,36.624C85.841,36.781 85.954,36.955 86.085,37.144C86.203,37.315 86.472,37.139 86.354,36.968C86.215,36.766 86.086,36.582 85.943,36.417C85.956,36.315 85.886,36.211 85.778,36.239C85.681,36.146 85.573,36.06 85.452,35.982C85.568,35.738 85.677,35.495 85.827,35.268C85.918,35.129 85.717,34.981 85.594,35.063C85.371,35.21 85.153,35.36 84.922,35.489C85.019,35.233 85.138,34.993 85.281,34.747C85.368,34.597 85.175,34.475 85.048,34.542C84.696,34.728 84.364,34.946 84.018,35.141C84.103,34.82 84.218,34.512 84.338,34.2C84.382,34.085 84.283,33.913 84.143,33.976C84.002,34.04 83.494,34.451 83.377,34.372C83.045,34.15 82.715,33.994 82.336,33.879C82.138,33.819 82.077,34.135 82.274,34.195C82.604,34.295 82.859,34.426 83.125,34.593C83.051,34.585 82.972,34.62 82.952,34.715C82.675,36.046 81.986,37.233 81.463,38.477C80.895,38.561 80.423,39.21 80.047,39.719C79.745,39.12 79.617,38.446 79.805,38.002C80.119,37.259 81.007,37.067 80.799,36.286C80.962,35.213 80.929,34.101 81.292,33.071C81.814,31.594 83.53,30.999 84.953,30.85C86.576,30.68 88.119,31.38 88.725,32.948C89.234,34.266 88.795,35.838 88.118,37.005C87.356,38.321 86.191,38.808 84.745,38.986C83.52,39.137 83.159,40.024 82.305,40.754ZM80.086,41.675C80.425,41.478 80.812,41.375 81.196,41.242L81.447,41.315L81.415,41.43C80.954,41.429 80.524,41.563 80.086,41.675ZM80.897,42.346C80.545,42.758 80.04,42.432 79.648,42.096C79.903,42.052 80.153,41.984 80.404,41.919L80.152,42.088C79.986,42.211 80.162,42.48 80.329,42.357C80.616,42.144 80.926,41.986 81.248,41.843C81.142,42.035 81.012,42.212 80.897,42.346ZM79.667,41.03C79.806,40.959 79.953,40.907 80.104,40.862L80.233,40.843L80.279,40.812L80.449,40.767L80.675,40.953C80.34,40.992 80.004,41.025 79.667,41.03ZM79.375,41.85L79.261,41.745C78.883,41.409 78.523,41.09 78.323,40.613C78.282,40.514 78.26,40.421 78.253,40.335C78.488,40.295 78.721,40.261 78.956,40.241C78.78,40.337 78.616,40.456 78.466,40.615C78.376,40.71 78.456,40.909 78.597,40.882C78.915,40.823 79.23,40.765 79.547,40.735C79.376,40.819 79.215,40.925 79.063,41.07C78.979,41.149 79.034,41.324 79.152,41.334C79.453,41.359 79.752,41.35 80.05,41.33C79.803,41.454 79.573,41.613 79.375,41.85ZM80.005,40.3L80.013,40.29L80.098,40.399C79.812,40.391 79.529,40.414 79.246,40.452C79.406,40.379 79.578,40.326 79.754,40.276C79.807,40.355 79.924,40.394 80.005,40.3ZM81.318,38.86L81.344,38.955C81.298,39.05 81.361,39.17 81.453,39.191C81.177,39.614 80.823,40.003 80.426,40.311C80.352,40.219 80.282,40.121 80.217,40.019C80.506,39.614 80.895,39.046 81.318,38.86ZM83.621,34.754C83.7,34.638 83.792,34.541 83.898,34.462C83.786,34.773 83.687,35.084 83.625,35.415C83.597,35.565 83.752,35.639 83.871,35.581C84.173,35.434 84.458,35.258 84.745,35.086C84.644,35.306 84.558,35.532 84.49,35.772C84.458,35.884 84.591,36 84.698,35.955C84.89,35.875 85.069,35.778 85.244,35.672C85.196,35.772 85.149,35.872 85.099,35.973L85.174,36.188C85.286,36.25 85.383,36.316 85.469,36.387C84.215,37.004 83.03,37.719 81.897,38.533L81.802,38.498C82.328,37.27 82.994,36.093 83.268,34.777L83.253,34.676L83.394,34.768L83.621,34.754ZM79.553,39.427C79.589,39.525 79.624,39.626 79.662,39.714L79.765,39.914C79.368,39.891 78.979,39.912 78.589,39.962C78.899,39.77 79.245,39.633 79.553,39.427ZM88.79,36.393C89.345,35.132 89.429,33.658 88.84,32.4C88.216,31.067 86.77,30.537 85.388,30.509C83.897,30.478 82.139,31.098 81.285,32.371C80.612,33.374 80.651,34.688 80.524,35.888C80.425,35.906 80.335,36.02 80.398,36.137L80.469,36.313C80.452,36.418 80.435,36.522 80.414,36.624L80.443,36.751C80.259,37.205 79.644,37.557 79.452,38.012C79.321,38.322 79.342,38.679 79.423,39.021L79.312,39.01C79.218,39.035 79.125,39.064 79.034,39.096L78.979,39.102L78.883,39.153C78.453,39.326 78.088,39.592 77.973,40.044L77.913,40.104L77.938,40.343C77.938,41.073 78.674,41.654 79.157,42.083C79.551,42.434 80.321,43.17 80.91,42.75C81.314,42.462 81.706,41.862 81.767,41.328C81.926,41.315 82.083,41.272 82.237,41.183C82.768,40.875 83.105,40.349 83.503,39.897C84.101,39.218 84.998,39.353 85.79,39.16C87.235,38.808 88.205,37.72 88.79,36.393Z" style="fill:white;fill-rule:nonzero;"/>
            </g>
            <g transform="matrix(1,0,0,1,110.5,4.5)">
                <path d="M79.023,34.996C78.469,35.068 77.815,35.172 77.277,34.975C77.085,34.905 76.941,35.193 77.136,35.265C77.735,35.484 78.424,35.397 79.043,35.317C79.248,35.29 79.229,34.969 79.023,34.996Z" style="fill:white;fill-rule:nonzero;"/>
            </g>
            <g transform="matrix(1,0,0,1,110.5,4.5)">
                <path d="M79.139,33.186C78.631,32.858 78.091,32.607 77.666,32.166C77.522,32.016 77.31,32.259 77.453,32.407C77.898,32.87 78.466,33.131 78.999,33.475C79.172,33.587 79.312,33.297 79.139,33.186Z" style="fill:white;fill-rule:nonzero;"/>
            </g>
            <g transform="matrix(1,0,0,1,110.5,4.5)">
                <path d="M81.604,30.355C81.252,29.883 80.924,29.398 80.689,28.856C80.607,28.667 80.301,28.767 80.384,28.957C80.63,29.525 80.965,30.036 81.335,30.531C81.459,30.697 81.728,30.521 81.604,30.355Z" style="fill:white;fill-rule:nonzero;"/>
            </g>
            <g transform="matrix(1,0,0,1,110.5,4.5)">
                <path d="M84.976,29.616C85.246,29.091 85.46,28.539 85.789,28.045C85.903,27.873 85.613,27.734 85.499,27.904C85.17,28.398 84.956,28.95 84.687,29.476C84.593,29.66 84.882,29.801 84.976,29.616Z" style="fill:white;fill-rule:nonzero;"/>
            </g>
            <g transform="matrix(1,0,0,1,110.5,4.5)">
                <path d="M89.786,29.194L88.794,30.321C88.657,30.476 88.898,30.689 89.035,30.533L90.028,29.407C90.165,29.251 89.924,29.038 89.786,29.194Z" style="fill:white;fill-rule:nonzero;"/>
            </g>
            <g transform="matrix(1,0,0,1,110.5,4.5)">
                <path d="M93.08,33.746C92.299,33.464 91.45,33.421 90.629,33.5C90.423,33.52 90.443,33.841 90.65,33.821C91.412,33.748 92.212,33.772 92.939,34.035C93.132,34.105 93.275,33.817 93.08,33.746Z" style="fill:white;fill-rule:nonzero;"/>
            </g>
            <g transform="matrix(1,0,0,1,110.5,4.5)">
                <path d="M91.903,37.418C91.302,36.956 90.595,36.72 89.873,36.517C89.674,36.461 89.613,36.777 89.812,36.833C90.477,37.02 91.136,37.233 91.691,37.659C91.854,37.785 92.068,37.545 91.903,37.418Z" style="fill:white;fill-rule:nonzero;"/>
            </g>
            <g transform="matrix(1,0,0,1,110.5,4.5)">
                <path d="M89.436,40.991C89.254,40.315 88.712,39.795 88.225,39.323C88.076,39.178 87.864,39.42 88.012,39.564C88.46,39.998 88.963,40.471 89.131,41.092C89.185,41.293 89.49,41.19 89.436,40.991Z" style="fill:white;fill-rule:nonzero;"/>
            </g>
            <g transform="matrix(1,0,0,1,110.5,4.5)">
                <path d="M86.664,42.727C86.582,42.101 86.478,41.47 86.05,40.98C85.914,40.824 85.703,41.068 85.838,41.222C86.2,41.638 86.274,42.221 86.343,42.747C86.37,42.952 86.691,42.933 86.664,42.727Z" style="fill:white;fill-rule:nonzero;"/>
            </g>
            <g transform="matrix(1,0,0,1,110.5,4.5)">
                <path d="M84.545,42.861C84.525,42.278 84.449,41.701 84.359,41.125C84.328,40.922 84.006,40.94 84.038,41.146C84.127,41.722 84.204,42.299 84.224,42.881C84.231,43.089 84.552,43.068 84.545,42.861Z" style="fill:white;fill-rule:nonzero;"/>
            </g>
            <g transform="matrix(1,0,0,1,110.5,4.5)">
                <path d="M14.237,72.556C13.442,72.358 12.673,72.056 11.901,71.784C11.02,71.473 10.125,71.191 9.206,71.074C10.11,70.615 10.972,70.071 11.877,69.608C12.335,70.109 12.794,70.608 13.265,71.096L13.541,71.08C13.766,70.858 14.009,70.663 14.261,70.482C14.462,70.742 14.635,71.041 14.757,71.357C14.655,71.398 14.577,71.519 14.649,71.643C14.755,71.827 14.85,72.019 14.938,72.213L14.942,72.357C14.939,72.457 14.999,72.508 15.072,72.524L15.128,72.662C14.947,72.825 14.401,72.597 14.237,72.556ZM8.412,71.021C8.308,71.02 8.205,71.017 8.101,71.022C8.563,69.739 9.279,68.43 9.484,67.068C10.214,67.794 10.91,68.552 11.605,69.312C10.532,69.867 9.517,70.537 8.412,71.021ZM14.795,68.497C15.239,68.612 15.936,68.595 16.059,68.952C15.696,69.191 15.225,69.418 15.083,69.499C14.973,69.561 14.679,69.783 14.358,70.009C14.239,69.932 14.099,70.051 14.093,70.19C13.717,70.439 13.362,70.637 13.268,70.539C12.151,69.381 11.103,68.159 9.975,67.012C11.591,67.478 13.166,68.074 14.795,68.497ZM15.986,69.421C15.757,70.001 15.593,70.561 15.494,71.184C15.445,71.492 15.394,71.792 15.323,72.089C15.277,71.434 14.975,70.788 14.579,70.264C15.035,69.966 15.515,69.702 15.986,69.421ZM15.635,72.911L15.548,72.675C15.895,71.705 15.911,70.652 16.296,69.683C16.368,69.499 16.48,69.29 16.524,69.087C16.912,68.835 17.157,68.625 16.809,68.192C16.653,67.997 16.325,68.208 16.482,68.404L16.446,68.629L16.387,68.555C16.233,68.408 15.925,68.364 15.732,68.316C15.097,68.156 14.463,68.012 13.834,67.827C12.392,67.402 10.987,66.868 9.533,66.481L9.543,66.326C9.542,66.074 9.152,66.099 9.154,66.349L9.141,66.547L9.133,66.669C9.026,68.227 8.112,69.738 7.628,71.192L7.638,71.299L7.588,71.401C7.514,71.551 7.663,71.727 7.823,71.672C8.055,71.593 8.281,71.502 8.504,71.406C10.815,71.455 12.912,72.807 15.188,73.146L15.327,73.118C15.459,73.224 15.705,73.109 15.635,72.911Z" style="fill:white;fill-rule:nonzero;"/>
            </g>
            <g transform="matrix(1,0,0,1,110.5,4.5)">
                <path d="M20.634,42.119C20.482,42.388 19.189,43.717 19.092,42.944L19.079,42.906C19.237,42.692 19.362,42.449 19.445,42.265C19.636,41.839 19.742,41.374 19.758,40.908C19.764,40.735 19.733,40.563 19.684,40.397C20.464,40.466 21.058,41.368 20.634,42.119ZM19.361,40.492C19.396,40.557 19.425,40.628 19.438,40.72C19.465,40.909 19.447,41.103 19.413,41.294C19.402,41.018 19.376,40.743 19.361,40.492ZM18.015,42.963C18.078,42.862 18.14,42.759 18.203,42.655L18.163,42.85L18.232,43.006L18.015,42.963ZM15.744,40.306C14.462,40.032 13.194,39.663 11.87,39.745L11.758,39.806C11.764,39.582 11.765,39.355 11.766,39.127C12.887,38.991 13.963,39.41 15.044,39.582C16.167,39.761 17.285,39.922 18.4,40.13C18.402,40.439 18.377,40.744 18.322,41.042C17.455,40.953 16.527,40.473 15.744,40.306ZM18.088,41.928C17.145,41.801 16.191,41.784 15.263,41.551C14.103,41.261 12.992,40.826 11.813,40.6L11.69,40.63C11.72,40.415 11.741,40.198 11.75,39.977L11.89,40.055C13.341,39.965 14.882,40.369 16.275,40.751C16.908,40.925 17.583,41.236 18.26,41.332C18.212,41.533 18.155,41.731 18.088,41.928ZM17.687,42.899C16.617,42.694 15.547,42.521 14.462,42.379C13.46,42.247 12.49,41.867 11.467,41.892L11.387,41.714C11.519,41.432 11.604,41.141 11.659,40.846L11.75,40.904C12.925,41.129 14.052,41.526 15.2,41.855C16.101,42.114 17.052,42.114 17.98,42.228C17.892,42.455 17.793,42.678 17.687,42.899ZM11.015,41.751C10.711,41.431 10.335,41.223 9.953,40.994L9.938,40.983L9.987,40.91C10.057,40.656 10.114,40.399 10.168,40.141C10.218,39.935 10.253,39.722 10.296,39.509L10.295,39.444C10.711,39.313 11.376,39.118 11.436,39.206L11.456,39.225C11.451,40.109 11.446,40.958 11.015,41.751ZM9.719,39.695C9.685,39.818 9.656,39.943 9.628,40.067C9.607,39.933 9.605,39.796 9.636,39.655L9.782,39.608L9.719,39.695ZM9.179,40.368L9.335,40.188C9.362,40.327 9.404,40.466 9.449,40.605L9.179,40.368ZM19.475,40.086L19.41,39.979L19.163,39.961L18.99,39.925L18.982,39.926C18.89,39.907 18.797,39.89 18.705,39.871L18.705,39.85C18.693,39.672 18.447,39.669 18.402,39.812C17.309,39.601 16.216,39.423 15.107,39.278C13.99,39.132 12.911,38.679 11.757,38.822C11.702,38.691 11.464,38.727 11.459,38.9C11.116,38.837 10.571,39.049 10.351,39.11C9.859,39.245 9.345,39.395 8.866,39.6L8.669,39.692L8.46,39.79L8.404,39.97C8.345,40.04 8.337,40.156 8.442,40.21C8.901,40.444 9.225,40.853 9.635,41.156C10.041,41.455 10.519,41.619 10.851,42.019L10.908,42.063C10.893,42.152 10.929,42.251 11.021,42.237C12.178,42.062 13.286,42.506 14.399,42.683C15.598,42.873 16.79,43.045 17.98,43.275L18.027,43.314C18.201,43.411 18.365,43.42 18.516,43.373L18.583,43.347L18.831,43.182C19.147,44.095 20.574,42.794 20.857,42.345C21.505,41.317 20.613,39.986 19.475,40.086Z" style="fill:white;fill-rule:nonzero;"/>
            </g>
            <g transform="matrix(1,0,0,1,110.5,4.5)">
                <path d="M85.955,59.963C85.914,59.685 86.101,58.013 86.6,58.513L86.631,58.533C86.637,58.774 86.682,59.018 86.725,59.196C86.826,59.608 87.008,60 87.257,60.342C87.349,60.47 87.467,60.576 87.594,60.668C86.996,61.053 86.069,60.736 85.955,59.963ZM87.773,60.42L87.591,60.3C87.466,60.179 87.371,60.03 87.289,59.874C87.451,60.066 87.622,60.248 87.773,60.42ZM87.361,57.9C87.373,58.007 87.385,58.115 87.398,58.225L87.318,58.063L87.183,57.99L87.361,57.9ZM90.468,58.54C91.539,58.022 92.653,57.581 93.557,56.785L93.603,56.679C93.723,56.843 93.849,57.005 93.975,57.17C93.247,57.891 92.243,58.19 91.373,58.669C90.469,59.166 89.578,59.672 88.663,60.144C88.489,59.924 88.338,59.691 88.21,59.447C88.882,59.028 89.814,58.856 90.468,58.54ZM87.886,58.682C88.632,58.248 89.325,57.73 90.119,57.38C91.112,56.942 92.15,56.635 93.121,56.141L93.193,56.05C93.291,56.221 93.397,56.389 93.513,56.552L93.37,56.574C92.38,57.446 91.051,58.015 89.839,58.516C89.29,58.744 88.632,58.897 88.094,59.205C88.017,59.035 87.947,58.86 87.886,58.682ZM87.632,57.763C88.513,57.315 89.376,56.843 90.233,56.341C91.024,55.877 91.931,55.61 92.65,55.022L92.806,55.105C92.869,55.381 92.97,55.636 93.095,55.879L92.997,55.888C92.029,56.381 91.001,56.723 89.995,57.127C89.206,57.443 88.524,57.972 87.796,58.406C87.733,58.195 87.679,57.98 87.632,57.763ZM93.053,54.871C93.449,54.932 93.833,54.872 94.234,54.823L94.251,54.822L94.258,54.902C94.348,55.123 94.45,55.339 94.556,55.553C94.634,55.729 94.728,55.901 94.816,56.077L94.852,56.124C94.627,56.45 94.26,56.959 94.167,56.93L94.142,56.927C93.654,56.291 93.185,55.68 93.053,54.871ZM95.125,55.624C95.082,55.516 95.032,55.411 94.984,55.306C95.073,55.39 95.151,55.487 95.208,55.606L95.129,55.721L95.125,55.624ZM95.138,54.84L95.127,55.056C95.029,54.972 94.922,54.895 94.812,54.821C94.921,54.828 95.029,54.833 95.138,54.84ZM87.917,60.774L88.024,60.815C88.117,60.841 88.198,60.768 88.21,60.69L88.354,60.619L88.36,60.615L88.588,60.499L88.6,60.514C88.708,60.635 88.886,60.501 88.838,60.373C89.739,59.916 90.621,59.435 91.497,58.922C92.379,58.404 93.403,58.128 94.151,57.383C94.263,57.446 94.414,57.288 94.321,57.162C94.602,57.016 94.875,56.56 94.998,56.395C95.276,56.024 95.56,55.63 95.79,55.217L95.879,55.041L95.975,54.854L95.915,54.694C95.918,54.611 95.859,54.523 95.754,54.543C95.295,54.631 94.835,54.518 94.373,54.53C93.914,54.541 93.481,54.69 93.021,54.588L92.955,54.589L92.778,54.527C92.046,55.297 91.005,55.595 90.109,56.088C89.144,56.618 88.194,57.159 87.213,57.657L87.158,57.655C86.979,57.682 86.857,57.767 86.774,57.885L86.741,57.941C86.699,58.017 86.673,58.105 86.655,58.197C85.92,57.719 85.622,59.445 85.669,59.925C85.778,61.022 87.158,61.479 87.917,60.774Z" style="fill:white;fill-rule:nonzero;"/>
            </g>
            <g transform="matrix(1,0,0,1,110.5,4.5)">
                <path d="M19.576,26.504L19.498,26.459C19.136,26.349 18.785,26.273 18.441,26.223L18.474,26.043C18.651,25.082 18.686,24.082 18.664,23.1C19.201,22.966 19.733,22.812 20.258,22.638C20.556,22.539 21.144,22.42 21.557,22.203C21.512,23.783 20.735,25.36 19.576,26.504ZM17.77,27.766C18.097,27.506 18.261,27.032 18.364,26.591C18.66,26.632 18.964,26.697 19.276,26.784C18.817,27.186 18.308,27.521 17.77,27.766ZM17.335,27.582C17.145,27.637 17.2,27.878 17.352,27.929C17.17,27.99 16.986,28.032 16.802,28.065L16.621,28.019C16.523,28.045 16.429,28.047 16.339,28.031L16.346,28.029C16.563,27.927 16.435,27.575 16.216,27.678C16.1,27.732 15.989,27.747 15.881,27.733L15.78,27.564C15.717,27.423 15.549,27.427 15.464,27.507C15.361,27.409 15.264,27.281 15.172,27.135C16.079,26.67 17.012,26.473 18.027,26.554C17.908,27.041 17.704,27.476 17.335,27.582ZM14.26,27.694C14.458,27.552 14.656,27.424 14.856,27.308C15.095,27.689 15.371,27.977 15.69,28.078L15.715,28.101C15.218,28.049 14.728,27.905 14.26,27.694ZM10.918,23.728C11.847,23.757 12.773,23.761 13.698,23.729L13.723,23.881C13.81,24.379 14.118,25.904 14.671,26.981C14.407,27.135 14.145,27.312 13.885,27.508C12.429,26.717 11.257,25.26 10.918,23.728ZM13.275,17.908L13.289,18.019C13.447,18.32 13.654,18.546 13.892,18.709C13.313,20.103 13.432,21.973 13.641,23.369C12.711,23.398 11.779,23.385 10.852,23.355C10.605,21.447 11.607,19.101 13.275,17.908ZM15.009,17.174L15.046,17.266C14.612,17.542 14.293,17.923 14.055,18.365C13.892,18.244 13.746,18.092 13.64,17.889L13.462,17.783C13.934,17.479 14.451,17.261 15.009,17.174ZM15.465,17.283L15.472,17.287C15.905,17.447 16.288,17.742 16.622,18.12C16.493,18.205 16.361,18.286 16.228,18.365C15.682,18.687 14.956,18.784 14.378,18.549C14.615,18.105 14.944,17.733 15.396,17.482L15.465,17.283ZM17.17,17.206C17.161,17.309 17.228,17.43 17.363,17.433C17.457,17.435 17.032,17.819 16.985,17.857L16.89,17.925C16.603,17.571 16.27,17.265 15.874,17.065C16.272,17.008 16.74,17.091 17.17,17.206ZM18.297,23.185C18.307,23.856 18.274,24.529 18.211,25.195C18.188,25.431 18.164,25.802 18.102,26.183C16.995,26.084 15.974,26.297 14.989,26.806C14.523,25.866 14.214,24.453 14.077,23.715C15.135,23.665 16.191,23.566 17.242,23.394C17.596,23.337 17.947,23.264 18.297,23.185ZM16.537,23.126C15.702,23.249 14.859,23.318 14.015,23.354L14.008,23.309C13.824,22.082 13.674,20.24 14.222,18.886C14.944,19.183 15.846,19.024 16.57,18.595C16.627,18.562 16.729,18.492 16.85,18.402C17.711,19.553 18.189,21.255 18.268,22.431C18.276,22.556 18.279,22.681 18.284,22.807C17.706,22.936 17.123,23.04 16.537,23.126ZM17.797,17.398L17.95,17.45C19.154,17.863 20.266,18.587 20.922,19.691C21.272,20.28 21.466,20.908 21.533,21.545L21.554,21.808L21.557,21.847L21.406,21.79C21.197,21.882 20.985,21.969 20.771,22.052C20.348,22.222 19.914,22.36 19.479,22.495C19.206,22.58 18.931,22.653 18.654,22.722L18.649,22.548C18.604,21.5 18.268,20.518 17.847,19.564C17.649,19.116 17.405,18.636 17.102,18.203C17.406,17.951 17.728,17.635 17.797,17.398ZM21.926,21.588C21.917,21.476 21.912,21.364 21.895,21.254C21.474,18.448 18.221,16.306 15.446,16.757L15.427,16.754C12.447,16.847 10.444,20.179 10.446,22.864C10.447,24.87 11.84,26.817 13.659,27.811C13.682,27.925 13.8,28.015 13.918,27.945C14.858,28.402 15.893,28.606 16.904,28.431C19.759,27.939 22.014,24.736 21.946,21.877L21.996,21.768L21.926,21.588Z" style="fill:white;fill-rule:nonzero;"/>
            </g>
            <g transform="matrix(1,0,0,1,110.5,4.5)">
                <path d="M23.844,18.57C23.85,18.986 23.808,19.349 23.661,19.712C22.972,18.146 22.146,16.845 20.533,16.085C18.79,15.265 17.181,14.698 15.255,15.182C12.49,15.877 8.812,18.093 8.678,21.273C8.668,21.514 9.041,21.479 9.051,21.241C9.173,18.325 12.558,16.429 15.003,15.643C16.844,15.051 18.397,15.539 20.094,16.299C21.287,16.834 22.05,17.584 22.648,18.551C22.509,18.48 22.306,18.597 22.381,18.773C22.637,19.375 23.065,19.892 23.616,20.246C23.707,20.304 23.82,20.237 23.866,20.157C24.158,19.643 24.225,19.123 24.217,18.538C24.214,18.296 23.841,18.33 23.844,18.57Z" style="fill:white;fill-rule:nonzero;"/>
            </g>
            <g transform="matrix(1,0,0,1,110.5,4.5)">
                <path d="M22.488,71.25C21.83,71.396 20.791,71.539 20.224,72.006C19.273,69.155 18.132,66.367 17.241,63.497C18.04,62.819 19.423,62.751 20.41,62.436C21.597,62.057 22.779,61.207 24.048,61.26C23.827,62.479 24.576,63.652 25.075,64.687C25.844,66.283 26.312,68.053 26.827,69.747L26.737,69.774L26.691,69.797C25.28,70.272 23.948,70.926 22.488,71.25ZM25.666,65.094C25.172,63.892 24.076,62.539 24.434,61.143C24.454,61.063 24.412,60.976 24.31,60.966C22.933,60.825 21.59,61.684 20.322,62.149C19.214,62.554 17.787,62.539 16.908,63.369L16.896,63.387L16.871,63.42L16.863,63.436L16.856,63.481L16.856,63.493L16.858,63.52C17.725,66.331 18.835,69.062 19.778,71.849L19.734,71.99C19.803,72.19 19.811,72.202 19.952,72.338C19.93,72.484 20.186,72.564 20.289,72.403C20.72,71.732 22.405,71.583 23.163,71.404C24.45,71.1 25.662,70.453 26.921,70.037C27.003,70.185 27.317,70.082 27.263,69.906C26.767,68.303 26.305,66.648 25.666,65.094Z" style="fill:white;fill-rule:nonzero;"/>
            </g>
            <g transform="matrix(1,0,0,1,110.5,4.5)">
                <path d="M23.892,63.217C22.243,64.111 20.383,64.444 18.606,64.979C18.493,65.013 18.549,65.198 18.663,65.164C20.457,64.624 22.328,64.283 23.993,63.382C24.097,63.325 23.995,63.161 23.892,63.217Z" style="fill:white;fill-rule:nonzero;"/>
            </g>
            <g transform="matrix(1,0,0,1,110.5,4.5)">
                <path d="M24.503,65.219C22.854,66.112 20.994,66.445 19.217,66.981C19.104,67.015 19.16,67.2 19.274,67.166C21.068,66.626 22.939,66.285 24.604,65.384C24.708,65.327 24.606,65.163 24.503,65.219Z" style="fill:white;fill-rule:nonzero;"/>
            </g>
            <g transform="matrix(1,0,0,1,110.5,4.5)">
                <path d="M19.649,68.306C21.298,67.413 23.157,67.08 24.935,66.545C25.048,66.511 24.991,66.325 24.878,66.359C23.084,66.899 21.212,67.24 19.548,68.142C19.444,68.198 19.545,68.362 19.649,68.306Z" style="fill:white;fill-rule:nonzero;"/>
            </g>
            <g transform="matrix(1,0,0,1,110.5,4.5)">
                <path d="M24.234,64.329C24.011,64.312 23.79,64.453 23.597,64.548C23.133,64.779 22.651,64.935 22.155,65.084C21.133,65.389 20.026,65.505 19.113,66.094C19.013,66.158 19.114,66.323 19.214,66.259C20.062,65.712 21.089,65.584 22.042,65.318C22.49,65.193 22.953,65.065 23.378,64.872C23.638,64.754 23.946,64.5 24.242,64.522C24.361,64.53 24.351,64.337 24.234,64.329Z" style="fill:white;fill-rule:nonzero;"/>
            </g>
            <g transform="matrix(1,0,0,1,110.5,4.5)">
                <path d="M21.799,82.722C21.195,82.424 20.295,81.884 19.561,81.893C20.604,79.075 21.461,76.187 22.564,73.392C23.612,73.364 24.733,74.177 25.699,74.549C26.862,74.997 28.315,75.075 29.272,75.911C28.336,76.722 28.186,78.106 27.926,79.225C27.526,80.951 26.782,82.624 26.123,84.267L26.036,84.233L25.986,84.221C24.589,83.708 23.14,83.383 21.799,82.722ZM28.132,79.913C28.5,78.666 28.492,76.925 29.646,76.061L29.661,75.845C28.675,74.873 27.09,74.702 25.811,74.27C24.693,73.892 23.589,72.987 22.385,73.084L22.364,73.089L22.324,73.1L22.308,73.108L22.274,73.138L22.267,73.147L22.251,73.17C21.167,75.905 20.322,78.729 19.311,81.491L19.189,81.574C19.118,81.773 19.116,81.788 19.141,81.982C19.032,82.082 19.181,82.305 19.363,82.244C20.119,81.991 21.526,82.929 22.229,83.265C23.423,83.834 24.773,84.089 26.015,84.553C25.986,84.719 26.295,84.836 26.364,84.665C26.981,83.104 27.657,81.524 28.132,79.913Z" style="fill:white;fill-rule:nonzero;"/>
            </g>
            <g transform="matrix(1,0,0,1,110.5,4.5)">
                <path d="M27.924,77.339C26.079,77.002 24.421,76.098 22.701,75.402C22.591,75.357 22.519,75.537 22.629,75.582C24.365,76.284 26.038,77.191 27.9,77.53C28.017,77.552 28.04,77.36 27.924,77.339Z" style="fill:white;fill-rule:nonzero;"/>
            </g>
            <g transform="matrix(1,0,0,1,110.5,4.5)">
                <path d="M27.147,79.282C25.302,78.946 23.644,78.041 21.923,77.345C21.813,77.301 21.741,77.481 21.851,77.525C23.588,78.227 25.26,79.134 27.123,79.474C27.239,79.495 27.263,79.303 27.147,79.282Z" style="fill:white;fill-rule:nonzero;"/>
            </g>
            <g transform="matrix(1,0,0,1,110.5,4.5)">
                <path d="M21.43,78.649C23.275,78.985 24.933,79.89 26.653,80.586C26.763,80.63 26.835,80.45 26.725,80.406C24.988,79.703 23.316,78.797 21.454,78.457C21.337,78.436 21.314,78.628 21.43,78.649Z" style="fill:white;fill-rule:nonzero;"/>
            </g>
            <g transform="matrix(1,0,0,1,110.5,4.5)">
                <path d="M27.495,78.419C27.332,78.267 27.071,78.238 26.861,78.192C26.355,78.081 25.881,77.901 25.401,77.706C24.414,77.304 23.478,76.702 22.397,76.589C22.279,76.576 22.255,76.768 22.373,76.78C23.376,76.885 24.257,77.429 25.167,77.818C25.595,78.001 26.035,78.192 26.488,78.307C26.764,78.378 27.163,78.372 27.38,78.575L27.495,78.419Z" style="fill:white;fill-rule:nonzero;"/>
            </g>
            <g transform="matrix(1,0,0,1,110.5,4.5)">
                <path d="M48.289,11.083C48.198,11.814 47.576,12.007 46.941,12.134C46.312,12.26 45.673,12.295 45.045,12.44C44.377,12.594 43.72,12.777 43.042,12.883L42.933,12.952C42.658,13.003 42.384,13.05 42.121,13.158C41.788,13.294 41.517,13.657 41.292,13.92C40.631,14.696 39.871,15.287 39.049,15.851C39.195,15.547 39.352,15.245 39.413,14.923C39.514,14.396 39.393,13.964 39.311,13.459C39.439,13.358 39.326,13.117 39.15,13.187L39.135,13.192L39.014,13.236C38.653,13.374 38.288,13.495 37.912,13.587C37.605,13.662 37.206,13.734 36.946,13.463C36.718,13.227 36.734,12.761 36.715,12.455C36.653,11.458 36.295,9.591 37.145,8.872C37.489,8.58 38.07,8.558 38.495,8.483C39.212,8.357 39.926,8.22 40.641,8.085C42.021,7.826 43.395,7.546 44.794,7.416C45.295,7.37 45.792,7.314 46.284,7.211C46.813,7.101 47.269,6.964 47.552,7.572C47.889,8.294 48.098,9.189 48.245,9.965C48.315,10.335 48.336,10.709 48.289,11.083ZM48.564,9.927C48.421,9.034 48.152,7.881 47.666,7.112C47.489,6.831 47.16,6.771 46.856,6.781C46.165,6.802 45.449,7.031 44.756,7.097C42.845,7.28 40.962,7.702 39.075,8.051C38.003,8.25 36.752,8.253 36.433,9.494C36.24,10.247 36.32,11.121 36.369,11.887C36.401,12.395 36.325,13.058 36.603,13.516C37.066,14.277 38.093,13.953 38.857,13.651C38.841,13.747 38.903,13.858 39.028,13.843L39.05,13.833C39.122,14.24 39.175,14.624 39.031,15.07C38.903,15.466 38.674,15.823 38.546,16.222C38.497,16.375 38.65,16.508 38.79,16.415C39.56,15.902 40.317,15.393 40.982,14.745C41.366,14.371 41.669,13.929 42.071,13.571C42.432,13.251 43.071,13.275 43.52,13.145L43.584,13.107C44.265,12.967 44.935,12.777 45.618,12.645C46.39,12.496 47.201,12.515 47.924,12.172C48.746,11.783 48.683,10.669 48.564,9.927Z" style="fill:white;fill-rule:nonzero;"/>
            </g>
            <g transform="matrix(1,0,0,1,110.5,4.5)">
                <path d="M39.387,11.26C39.127,11.57 38.57,11.692 38.285,11.362C38.059,11.101 38.145,10.778 38.5,10.749C38.635,10.738 38.664,10.6 38.613,10.509C38.766,10.476 38.931,10.488 39.101,10.557C39.39,10.676 39.622,10.98 39.387,11.26ZM39.36,10.33C38.813,10.008 38.15,10.183 37.815,10.715L37.857,10.943C37.83,11.109 37.865,11.296 37.969,11.473C38.313,12.06 39.11,11.931 39.552,11.546C39.988,11.167 39.814,10.597 39.36,10.33Z" style="fill:white;fill-rule:nonzero;"/>
            </g>
            <g transform="matrix(1,0,0,1,110.5,4.5)">
                <path d="M41.661,10.981C41.496,10.933 41.338,10.786 41.343,10.653L41.462,10.523L41.473,10.488L41.505,10.469C41.598,10.431 41.617,10.341 41.589,10.267C41.683,10.178 41.815,10.13 41.963,10.12C42.138,10.109 42.458,10.185 42.447,10.414C42.43,10.766 41.995,11.08 41.661,10.981ZM41.181,10.305C40.913,10.558 41.002,10.976 41.36,11.194C41.889,11.517 42.517,11.171 42.725,10.63C43.067,9.741 41.455,9.491 41.181,10.305Z" style="fill:white;fill-rule:nonzero;"/>
            </g>
            <g transform="matrix(1,0,0,1,110.5,4.5)">
                <path d="M45.449,10.454C45.243,10.588 44.698,10.634 44.654,10.31C44.64,10.206 44.673,10.104 44.729,10.01L44.768,10.003C44.996,9.909 45.444,9.737 45.638,9.989C45.767,10.156 45.583,10.367 45.449,10.454ZM45.943,9.878C45.829,9.633 45.603,9.55 45.357,9.548C45.417,9.441 45.359,9.277 45.209,9.309C44.735,9.411 44.308,9.839 44.335,10.348C44.366,10.921 45.151,10.944 45.541,10.767C45.868,10.619 46.106,10.229 45.943,9.878Z" style="fill:white;fill-rule:nonzero;"/>
            </g>
            <g transform="matrix(1,0,0,1,110.5,4.5)">
                <path d="M85.317,83.096C84.912,83.712 84.269,83.611 83.643,83.445C83.023,83.281 82.434,83.03 81.807,82.883C81.139,82.727 80.469,82.601 79.813,82.397L79.685,82.41C79.416,82.336 79.149,82.257 78.865,82.238C78.506,82.213 78.103,82.419 77.785,82.556C76.849,82.961 75.907,83.155 74.921,83.3C75.185,83.091 75.46,82.889 75.657,82.627C75.98,82.199 76.061,81.757 76.211,81.268C76.37,81.234 76.375,80.968 76.186,80.953L76.17,80.951L76.042,80.937C75.658,80.902 75.276,80.849 74.898,80.766C74.59,80.698 74.2,80.586 74.086,80.229C73.986,79.917 74.206,79.505 74.324,79.222C74.708,78.301 75.21,76.466 76.29,76.196C76.728,76.086 77.258,76.323 77.673,76.443C78.372,76.646 79.074,76.838 79.774,77.032C81.127,77.409 82.484,77.763 83.797,78.264C84.266,78.443 84.737,78.612 85.225,78.737C85.748,78.871 86.217,78.949 86.203,79.62C86.187,80.416 85.98,81.311 85.769,82.073C85.669,82.436 85.523,82.781 85.317,83.096ZM86.072,82.18C86.338,81.315 86.606,80.162 86.509,79.258C86.473,78.927 86.205,78.728 85.927,78.603C85.298,78.317 84.555,78.207 83.904,77.961C82.108,77.281 80.231,76.83 78.384,76.311C77.335,76.016 76.21,75.467 75.377,76.44C74.872,77.031 74.557,77.851 74.263,78.56C74.068,79.03 73.707,79.592 73.755,80.125C73.836,81.012 74.9,81.174 75.718,81.241C75.662,81.32 75.669,81.446 75.787,81.488L75.811,81.489C75.696,81.886 75.575,82.254 75.249,82.591C74.959,82.89 74.597,83.109 74.305,83.411C74.194,83.526 74.272,83.713 74.44,83.691C75.356,83.571 76.261,83.448 77.143,83.16C77.653,82.994 78.119,82.73 78.638,82.587C79.104,82.458 79.666,82.762 80.127,82.843L80.201,82.838C80.874,83.012 81.559,83.137 82.23,83.32C82.989,83.526 83.708,83.902 84.508,83.913C85.418,83.925 85.852,82.898 86.072,82.18Z" style="fill:white;fill-rule:nonzero;"/>
            </g>
            <g transform="matrix(1,0,0,1,110.5,4.5)">
                <path d="M77.249,79.328C76.879,79.492 76.325,79.356 76.215,78.934C76.127,78.6 76.346,78.348 76.678,78.479C76.804,78.528 76.891,78.418 76.885,78.313C77.037,78.351 77.18,78.434 77.302,78.572C77.509,78.806 77.584,79.181 77.249,79.328ZM77.634,78.482C77.286,77.952 76.613,77.817 76.078,78.147L76.015,78.369C75.918,78.506 75.867,78.689 75.882,78.894C75.932,79.573 76.704,79.808 77.271,79.658C77.829,79.51 77.924,78.922 77.634,78.482Z" style="fill:white;fill-rule:nonzero;"/>
            </g>
            <g transform="matrix(1,0,0,1,110.5,4.5)">
                <path d="M79.412,80.081C79.286,79.965 79.209,79.764 79.272,79.646L79.436,79.582L79.462,79.555L79.498,79.553C79.599,79.56 79.655,79.487 79.663,79.409C79.787,79.371 79.927,79.385 80.063,79.441C80.226,79.509 80.48,79.718 80.368,79.919C80.198,80.227 79.668,80.317 79.412,80.081ZM79.28,79.262C78.928,79.372 78.824,79.786 79.048,80.139C79.381,80.663 80.097,80.629 80.523,80.236C81.222,79.589 79.885,78.653 79.28,79.262Z" style="fill:white;fill-rule:nonzero;"/>
            </g>
            <g transform="matrix(1,0,0,1,110.5,4.5)">
                <path d="M83.045,81.279C82.801,81.308 82.292,81.11 82.395,80.799C82.428,80.699 82.503,80.622 82.594,80.563L82.633,80.573C82.878,80.59 83.356,80.633 83.419,80.945C83.461,81.151 83.203,81.26 83.045,81.279ZM83.742,80.98C83.748,80.709 83.582,80.535 83.362,80.425C83.462,80.356 83.483,80.182 83.335,80.145C82.864,80.028 82.292,80.224 82.092,80.692C81.866,81.22 82.561,81.587 82.989,81.6C83.348,81.611 83.734,81.367 83.742,80.98Z" style="fill:white;fill-rule:nonzero;"/>
            </g>
            <g transform="matrix(1,0,0,1,110.5,4.5)">
                <path d="M13.088,52.152C12.159,52.397 10.713,52.756 10.174,53.636C10.093,53.768 10.3,53.888 10.381,53.757C10.787,53.093 11.785,52.753 12.611,52.526C12.247,52.942 12.051,53.532 11.908,54.038C11.687,54.825 11.541,55.785 11.781,56.583C11.819,56.71 12.019,56.689 12.016,56.551L12.013,56.39L11.958,56.294C11.835,55.67 11.941,54.987 12.071,54.381C12.22,53.683 12.499,52.729 13.181,52.371C13.303,52.306 13.217,52.118 13.088,52.152Z" style="fill:white;fill-rule:nonzero;"/>
            </g>
            <g transform="matrix(1,0,0,1,110.5,4.5)">
                <path d="M14.051,53.466L13.913,53.363L13.816,53.352L13.64,53.424L13.582,53.564C13.513,53.668 13.635,53.764 13.729,53.73L13.785,53.728L13.998,53.666L14.051,53.466Z" style="fill:white;fill-rule:nonzero;"/>
            </g>
            <g transform="matrix(1,0,0,1,110.5,4.5)">
                <path d="M14.046,54.423L13.864,54.598L13.82,54.736L13.827,54.787C13.848,54.882 13.963,54.894 14.027,54.84L14.17,54.71L14.222,54.558C14.255,54.457 14.133,54.371 14.046,54.423Z" style="fill:white;fill-rule:nonzero;"/>
            </g>
            <g transform="matrix(1,0,0,1,110.5,4.5)">
                <path d="M17.159,53.141C17.15,53.802 16.757,54.509 16.118,54.739C15.534,54.95 15.485,53.853 15.479,53.536C15.475,53.299 15.481,53.06 15.492,52.823C15.498,52.642 15.543,52.47 15.626,52.308C15.636,52.287 15.746,52.114 15.855,52.039L15.796,52.127C15.718,52.261 15.925,52.382 16.003,52.248L16.093,52.12C16.175,52.151 16.28,52.069 16.248,51.969C16.499,51.802 16.777,51.923 16.983,52.25C17.147,52.511 17.163,52.843 17.159,53.141ZM17.371,52.672C17.234,51.946 16.619,51.386 16.093,51.779C15.967,51.706 15.818,51.762 15.659,51.887C15.242,52.217 15.244,52.808 15.243,53.286C15.242,53.768 15.248,55.148 16.075,54.99C17.055,54.804 17.54,53.565 17.371,52.672Z" style="fill:white;fill-rule:nonzero;"/>
            </g>
            <g transform="matrix(1,0,0,1,110.5,4.5)">
                <path d="M20.008,52.778C19.84,53.352 19.139,53.953 18.62,53.424C18.176,52.972 18.11,52.072 18.289,51.501L18.271,51.401C18.433,50.853 19.079,50.666 19.549,51.09C19.999,51.496 20.175,52.207 20.008,52.778ZM19.344,50.671C18.655,50.367 18.008,50.976 17.994,51.649L18,51.68C17.862,52.418 18.057,53.386 18.698,53.795C19.384,54.232 20.106,53.296 20.27,52.736C20.485,51.999 20.05,50.982 19.344,50.671Z" style="fill:white;fill-rule:nonzero;"/>
            </g>
            <g transform="matrix(1,0,0,1,110.5,4.5)">
                <path d="M53.64,32.788L53.637,32.784C53.429,32.586 53.271,32.152 53.324,31.895C53.389,31.578 52.903,31.443 52.838,31.761C52.759,32.146 52.89,32.612 53.128,32.946C52.727,33.056 52.348,33.124 52.026,33.14C50.244,33.224 48.296,32.2 47.949,30.381L47.968,30.369C48.176,30.168 48.454,30.134 48.73,30.182C49.048,30.236 49.184,29.75 48.864,29.696C48.524,29.637 48.191,29.658 47.9,29.807C47.923,28.329 49.156,25.551 50.872,26.15L51.031,26.146L51.192,26.125C53.216,25.079 56.054,26.609 56.832,28.628C56.549,28.704 56.246,28.72 55.98,28.587C55.69,28.442 55.435,28.877 55.725,29.022C56.116,29.218 56.558,29.22 56.972,29.107C57.279,30.822 55.377,32.176 53.64,32.788ZM57.404,28.727C56.983,26.179 53.195,24.595 51.001,25.663C48.786,24.895 47.544,28.128 47.4,29.801C47.174,32.431 50.141,33.733 52.316,33.63C54.708,33.516 57.844,31.383 57.404,28.727Z" style="fill:white;fill-rule:nonzero;"/>
            </g>
            <g transform="matrix(1,0,0,1,110.5,4.5)">
                <path d="M53.889,27.115C53.48,26.732 53.158,26.272 52.694,25.949C52.582,25.87 52.414,25.927 52.35,26.039L52.335,26.062C52.048,26.383 51.76,26.7 51.426,26.975C51.202,27.159 51.491,27.518 51.731,27.37C51.954,27.234 52.153,27.076 52.328,26.896C52.324,27.009 52.316,27.122 52.307,27.235C52.186,27.317 52.128,27.48 52.273,27.597C52.251,27.805 52.23,28.014 52.216,28.223L52.075,28.362C51.939,28.565 51.945,28.821 51.947,29.057L51.958,29.109L51.945,29.302C51.552,29.398 51.157,29.641 50.783,29.899L50.895,29.723C51.044,29.464 50.711,29.237 50.499,29.418C50.071,29.784 49.73,30.185 49.572,30.735C49.53,30.883 49.651,31.067 49.815,31.054C50.298,31.014 50.844,30.944 51.1,31.452C51.246,31.742 51.68,31.487 51.535,31.197C51.349,30.829 51.059,30.657 50.725,30.582C50.868,30.488 51.009,30.393 51.152,30.301C51.507,30.072 52.066,29.649 52.51,29.804C52.667,29.858 52.777,29.758 52.808,29.633C52.947,29.576 53.068,29.477 53.144,29.316C53.321,28.943 53.166,28.495 52.934,28.184L52.835,28.09L52.835,28.034C52.831,27.891 52.827,27.698 52.784,27.527C52.811,27.262 52.833,26.998 52.836,26.732C53.073,26.974 53.287,27.241 53.533,27.471C53.77,27.693 54.127,27.337 53.889,27.115Z" style="fill:white;fill-rule:nonzero;"/>
            </g>
            <g transform="matrix(1,0,0,1,110.5,4.5)">
                <path d="M62.461,16.835C61.199,17.331 58.886,15.297 59.504,14.184C59.519,14.378 59.814,14.5 59.942,14.285C60.665,13.071 62.209,12.649 63.324,13.63C64.387,14.564 63.628,16.377 62.461,16.835ZM63.655,13.295C62.581,12.206 60.974,12.502 59.999,13.465C59.937,13.371 59.818,13.312 59.691,13.381C58.6,13.965 58.943,15.272 59.578,16.079C60.356,17.067 61.646,17.749 62.87,17.166C64.302,16.483 64.771,14.426 63.655,13.295Z" style="fill:white;fill-rule:nonzero;"/>
            </g>
            <g transform="matrix(1,0,0,1,110.5,4.5)">
                <path d="M72.257,11.841C71.534,12.533 70.522,12.182 69.922,11.537C69.37,10.944 69.273,10.141 69.564,9.441L69.713,9.328C70.244,8.376 72.044,7.208 72.93,8.402C73.634,9.351 73.015,11.115 72.257,11.841ZM73.083,7.863C72.087,6.845 70.415,7.711 69.601,8.674L69.391,8.774C67.876,10.883 70.657,14.024 72.706,12.062C73.703,11.108 74.11,8.914 73.083,7.863Z" style="fill:white;fill-rule:nonzero;"/>
            </g>
            <g transform="matrix(1,0,0,1,110.5,4.5)">
                <path d="M72.157,21.809C72.06,21.855 72.029,21.936 72.039,22.016C71.075,22.725 69.832,22.37 69.075,21.371C68.193,20.207 68.685,18.425 70.092,17.949C71.952,17.32 74.221,20.822 72.157,21.809ZM71.225,13.462C71.057,14.55 70.955,15.644 70.868,16.74C70.734,16.413 70.596,16.089 70.44,15.771C70.303,15.494 69.916,15.735 70.032,16.006C70.207,16.416 70.343,16.815 70.546,17.189C70.583,17.283 70.622,17.376 70.659,17.469C70.326,17.438 69.986,17.476 69.654,17.618C69.351,17.747 69.097,17.925 68.889,18.136L68.725,18.033L68.732,17.791C68.421,17.338 67.967,16.984 67.729,16.486C67.598,16.212 67.192,16.449 67.321,16.721C67.483,17.06 67.736,17.325 67.98,17.6C67.472,17.331 66.947,17.09 66.43,16.858C65.806,16.578 64.949,16.09 64.24,16.199C63.94,16.245 64.062,16.7 64.359,16.654C65.006,16.555 65.982,17.167 66.537,17.421C66.922,17.597 67.312,17.779 67.692,17.977C67.432,18.057 67.168,18.127 66.908,18.215C66.665,18.297 66.687,18.685 66.966,18.678C67.49,18.664 68.01,18.594 68.533,18.605C67.986,19.549 68.087,20.841 68.769,21.74C69.776,23.068 71.626,23.288 72.746,22.003C74.325,20.855 73.059,18.303 71.314,17.626C71.768,17.3 72.169,16.913 72.58,16.53C72.802,16.323 72.466,15.993 72.245,16.199C71.938,16.486 71.639,16.776 71.315,17.038C71.404,15.883 71.502,14.73 71.68,13.584C71.726,13.287 71.272,13.162 71.225,13.462Z" style="fill:white;fill-rule:nonzero;"/>
            </g>
            <g transform="matrix(1,0,0,1,110.5,4.5)">
                <path d="M83.34,52.779L83.126,52.836C82.693,53.21 82.235,53.542 81.759,53.847L81.785,53.802C82.303,53.272 82.832,52.754 83.357,52.232C83.584,52.003 83.233,51.652 83.004,51.879L83.003,51.88L82.956,51.785C83.095,51.744 83.234,51.726 83.368,51.759L83.568,51.722C83.534,52.08 83.459,52.434 83.34,52.779ZM79.364,51.296L79.201,51.294C79.11,51.292 79.019,51.295 78.927,51.29L78.939,51.281C79.155,51.14 79.047,50.861 78.848,50.827C78.669,49.441 78.476,48.057 78.567,46.652L78.502,46.472C79.092,46.447 79.688,46.514 80.255,46.682C82.133,47.236 83.366,48.957 83.563,50.786C82.148,50.814 80.776,51.278 79.364,51.296ZM74.884,48.257C75.27,47.742 75.769,47.337 76.334,47.043C75.846,47.44 75.386,47.876 74.884,48.257ZM74.013,50.731C74.022,50.625 74.031,50.518 74.046,50.412L74.162,50.353C74.762,49.735 75.466,49.269 76.201,48.849C75.468,49.472 74.711,50.069 74.013,50.731ZM74.943,53.18C74.839,53.129 74.714,53.161 74.637,53.233C74.442,53.022 74.299,52.768 74.195,52.489C74.653,52.152 75.094,51.787 75.542,51.431C75.126,51.758 74.75,52.126 74.497,52.63C74.389,52.846 74.613,53.106 74.839,52.971C75.237,52.734 75.603,52.441 75.975,52.162C75.61,52.478 75.261,52.811 74.943,53.18ZM74.024,51.749C74.013,51.66 73.997,51.574 73.992,51.483C74.18,51.357 74.366,51.228 74.551,51.096C74.358,51.298 74.181,51.514 74.024,51.749ZM74.269,49.448C74.302,49.345 74.35,49.254 74.39,49.156L74.479,49.131C74.688,49.027 74.889,48.91 75.088,48.79C74.795,49.011 74.515,49.248 74.252,49.509L74.269,49.448ZM84.145,50.797L84.14,50.797C83.878,48.782 82.304,46.897 80.387,46.2C77.742,45.238 74.741,46.736 73.788,49.316C73.295,50.65 73.339,52.239 74.068,53.276C73.874,53.291 73.713,53.531 73.899,53.691C75.084,54.712 76.237,55.719 77.847,55.93C78.86,56.063 79.974,56.053 80.828,55.525C81.876,55.269 82.824,54.693 83.479,53.706C83.984,52.944 84.189,52.12 84.175,51.303L84.271,51.262C84.518,51.15 84.367,50.815 84.145,50.797Z" style="fill:white;fill-rule:nonzero;"/>
            </g>
            <g transform="matrix(1,0,0,1,110.5,4.5)">
                <path d="M81.995,26.672C81.967,26.489 81.975,26.274 81.96,26.135C81.929,25.847 81.907,25.557 81.881,25.267C81.839,24.812 81.775,24.361 81.677,23.915C81.61,23.609 81.143,23.739 81.21,24.044C81.345,24.662 81.398,25.289 81.455,25.918C81.492,26.339 81.461,26.925 81.739,27.263C81.831,27.376 82.06,27.351 82.119,27.214C82.162,27.115 82.146,27.057 82.162,26.952C82.183,26.814 82.098,26.714 81.995,26.672Z" style="fill:white;fill-rule:nonzero;"/>
            </g>
            <g transform="matrix(1,0,0,1,110.5,4.5)">
                <path d="M81.201,22.525L81.201,22.646C81.201,22.959 81.686,22.959 81.686,22.646L81.686,22.525C81.686,22.212 81.201,22.212 81.201,22.525Z" style="fill:white;fill-rule:nonzero;"/>
            </g>
            <g transform="matrix(1,0,0,1,110.5,4.5)">
                <path d="M83.737,25.829C83.353,25.914 83.064,25.544 82.961,25.226C82.891,25.006 82.902,24.782 82.975,24.581L83.141,24.552C83.564,24.291 84.215,24.189 84.55,24.653C84.911,25.155 84.17,25.733 83.737,25.829ZM86.137,26.038C85.125,24.547 84.733,22.722 84.594,20.949C84.57,20.64 84.085,20.637 84.11,20.949C84.192,22.002 84.363,23.071 84.683,24.086C84.395,23.878 84.006,23.827 83.631,23.881L83.439,23.669L83.145,23.631C82.55,24.042 82.292,24.727 82.516,25.424C82.724,26.07 83.358,26.457 84.017,26.256C84.534,26.099 84.978,25.642 85.077,25.126C85.259,25.527 85.469,25.915 85.718,26.283C85.893,26.54 86.313,26.298 86.137,26.038Z" style="fill:white;fill-rule:nonzero;"/>
            </g>
            <g transform="matrix(1,0,0,1,110.5,4.5)">
                <path d="M87.415,23.184C87.238,23.448 86.988,23.605 86.681,23.691C86.711,23.506 86.772,23.325 86.889,23.192C87.041,23.019 87.233,23.064 87.415,23.184ZM87.987,24.376C87.731,24.567 87.295,24.888 86.961,24.709C86.783,24.614 86.706,24.398 86.675,24.192C87.228,24.075 87.705,23.783 87.946,23.251C87.989,23.155 87.994,23.034 87.908,22.957C87.547,22.636 87.052,22.428 86.632,22.77C86.293,23.045 86.179,23.534 86.172,23.95C86.166,24.388 86.312,24.859 86.69,25.112C87.184,25.443 87.825,25.098 88.231,24.794C88.479,24.61 88.238,24.188 87.987,24.376Z" style="fill:white;fill-rule:nonzero;"/>
            </g>
            <g transform="matrix(1,0,0,1,110.5,4.5)">
                <path d="M90.226,22.904C90.113,23.155 89.893,23.546 89.559,23.478C89.449,23.456 89.354,23.395 89.271,23.319L89.208,23.219L89.031,22.99L89.021,22.963L88.994,22.782L89.036,22.785C89.256,22.793 89.317,22.558 89.229,22.412L89.328,22.339C89.503,22.227 89.713,22.149 89.92,22.131C90.084,22.117 90.252,22.145 90.315,22.237L90.361,22.409L90.358,22.443C90.351,22.601 90.282,22.78 90.226,22.904ZM91.791,23.511C91.518,23.067 91.232,22.619 90.825,22.288C90.748,21.864 90.368,21.596 89.855,21.653C89.304,21.715 88.602,22.075 88.501,22.677L88.499,22.827L88.497,22.851L88.499,22.862C88.508,23.006 88.554,23.141 88.627,23.264C88.716,23.434 88.84,23.587 88.98,23.706C89.264,23.947 89.651,24.054 90,23.886C90.381,23.703 90.62,23.285 90.753,22.887C90.993,23.148 91.185,23.45 91.372,23.755C91.535,24.021 91.954,23.778 91.791,23.511Z" style="fill:white;fill-rule:nonzero;"/>
            </g>
            <g transform="matrix(1,0,0,1,110.5,4.5)">
                <path d="M11.868,60.265C11.734,60.167 11.584,60.117 11.431,60.101C11.603,59.838 11.589,59.522 11.224,59.261C10.801,58.96 10.332,59.083 10.016,59.396C9.974,59.288 9.809,59.284 9.738,59.381C9.647,59.506 9.646,59.586 9.635,59.742L9.702,59.869C9.691,60.199 9.685,60.529 9.703,60.859C9.722,61.193 9.749,61.609 9.991,61.866C10.128,62.011 10.347,61.792 10.21,61.647C9.967,61.389 10.008,60.846 10,60.519C9.996,60.332 9.999,60.145 10.005,59.958L10.017,59.938C10.169,59.526 10.548,59.285 10.973,59.475C11.488,59.705 11.124,60.08 10.777,60.237C10.597,60.33 10.755,60.586 10.934,60.505C11.409,60.261 12.137,60.594 11.613,61.134C11.404,61.35 10.633,61.544 10.482,61.173C10.408,60.99 10.108,61.07 10.183,61.255C10.467,61.95 11.575,61.708 11.944,61.22C12.159,60.936 12.173,60.489 11.868,60.265Z" style="fill:white;fill-rule:nonzero;"/>
            </g>
            <g transform="matrix(1,0,0,1,110.5,4.5)">
                <path d="M13.968,58.926C13.941,58.729 13.643,58.813 13.669,59.009C13.732,59.473 13.617,60.368 13.218,60.667C12.679,61.072 12.619,59.263 12.574,59.004C12.54,58.807 12.241,58.891 12.275,59.086C12.367,59.62 12.279,61.286 13.247,60.997C13.921,60.796 14.045,59.493 13.968,58.926Z" style="fill:white;fill-rule:nonzero;"/>
            </g>
            <g transform="matrix(1,0,0,1,110.5,4.5)">
                <path d="M14.902,59.22C15.015,58.991 15.38,58.956 15.6,58.967C15.8,58.978 15.799,58.668 15.6,58.658C15.289,58.641 14.98,58.722 14.741,58.925C14.594,59.049 14.401,59.443 14.621,59.586L14.866,59.649C14.96,59.664 15.059,59.806 15.141,59.862C15.299,59.971 15.432,59.99 15.262,60.183C15.087,60.382 14.695,60.493 14.588,60.166C14.526,59.977 14.227,60.058 14.289,60.248C14.405,60.601 14.722,60.731 15.072,60.661C15.37,60.602 15.726,60.256 15.662,59.935C15.64,59.822 15.523,59.741 15.436,59.682C15.305,59.592 15.195,59.48 15.066,59.393L14.907,59.343C14.754,59.318 14.822,59.382 14.902,59.22Z" style="fill:white;fill-rule:nonzero;"/>
            </g>
            <g transform="matrix(1,0,0,1,110.5,4.5)">
                <path d="M16.792,59.982C16.685,59.607 16.689,59.197 16.685,58.812C16.683,58.613 16.373,58.613 16.375,58.812C16.381,59.355 16.385,59.924 16.63,60.421C16.677,60.515 16.804,60.514 16.874,60.452C16.98,60.357 16.963,60.3 16.989,60.171C17.016,60.039 16.89,59.961 16.792,59.982Z" style="fill:white;fill-rule:nonzero;"/>
            </g>
            <g transform="matrix(1,0,0,1,110.5,4.5)">
                <path d="M16.762,57.805C16.563,57.805 16.563,58.115 16.762,58.115C16.962,58.115 16.962,57.805 16.762,57.805Z" style="fill:white;fill-rule:nonzero;"/>
            </g>
            <g transform="matrix(1,0,0,1,110.5,4.5)">
                <path d="M19.364,59.4C19.264,59.528 19.156,59.616 19.024,59.674C19.032,59.095 18.961,58.041 18.284,58.135C17.927,58.185 17.761,58.461 17.669,58.798L17.686,58.544C17.715,58.348 17.417,58.264 17.388,58.461C17.312,58.976 17.451,59.511 17.456,60.028C17.457,60.206 17.707,60.235 17.76,60.069C17.915,59.58 17.834,59.022 18.118,58.573C18.382,58.157 18.602,58.727 18.65,58.946C18.716,59.251 18.723,59.578 18.707,59.889C18.701,59.996 18.809,60.056 18.903,60.038C19.189,59.984 19.404,59.848 19.583,59.619C19.705,59.464 19.487,59.243 19.364,59.4Z" style="fill:white;fill-rule:nonzero;"/>
            </g>
            <g transform="matrix(1,0,0,1,110.5,4.5)">
                <path d="M21.002,58.318C20.788,58.491 20.493,58.558 20.218,58.575C20.352,58.379 20.72,58.254 21.002,58.318ZM21.688,58.78C21.391,59.091 20.701,59.301 20.332,59.004L20.221,58.884C20.672,58.857 21.116,58.714 21.4,58.344L21.345,58.132C20.78,57.71 19.666,58.141 19.921,58.933C20.186,59.752 21.459,59.468 21.907,58.999C22.045,58.855 21.827,58.636 21.688,58.78Z" style="fill:white;fill-rule:nonzero;"/>
            </g>
            <g transform="matrix(1,0,0,1,110.5,4.5)">
                <path d="M23.474,58.186C23.372,58.109 23.203,58.124 23.085,58.133C22.916,58.145 22.818,58.133 22.66,58.075L22.475,58.032L22.524,57.766C22.619,57.586 22.89,57.492 23.074,57.567C23.258,57.644 23.338,57.344 23.156,57.269C22.862,57.148 22.516,57.302 22.318,57.526C22.155,57.709 22.02,58.143 22.287,58.295C22.396,58.357 22.535,58.35 22.649,58.404C22.773,58.463 22.901,58.458 23.035,58.447C23.169,58.436 23.494,58.427 23.293,58.665C23.19,58.787 22.925,58.748 22.806,58.679C22.632,58.578 22.476,58.846 22.649,58.946C22.884,59.082 23.257,59.1 23.474,58.917C23.696,58.729 23.713,58.364 23.474,58.186Z" style="fill:white;fill-rule:nonzero;"/>
            </g>
            <g transform="matrix(1,0,0,1,110.5,4.5)">
                <path d="M25.051,57.108C24.546,57.086 24.065,56.944 23.695,57.386L23.671,57.574C23.82,57.81 24.039,57.891 24.296,57.967C24.428,58.006 24.545,58.096 24.56,58.245C24.576,58.396 24.197,58.354 24.122,58.348C23.923,58.331 23.924,58.641 24.122,58.658C24.425,58.684 24.969,58.6 24.861,58.161C24.818,57.987 24.713,57.829 24.557,57.738C24.38,57.635 24.167,57.638 24.017,57.507C24.31,57.278 24.686,57.402 25.051,57.418C25.251,57.427 25.25,57.117 25.051,57.108Z" style="fill:white;fill-rule:nonzero;"/>
            </g>
            <g transform="matrix(1,0,0,1,110.5,4.5)">
                <path d="M8.182,34.252C7.604,34.124 7.346,34.643 7.128,35.141C7.027,34.701 6.789,34.322 6.261,34.559C5.851,34.743 5.51,35.11 5.254,35.53L5.279,35.275C5.298,35.03 4.917,35.032 4.899,35.275C4.863,35.744 4.774,36.201 4.802,36.674C4.814,36.879 5.128,36.943 5.175,36.724C5.291,36.185 5.569,35.698 5.932,35.285C6.082,35.114 6.263,34.953 6.483,34.882C6.857,34.761 6.818,35.65 6.816,35.823C6.813,36.022 7.068,36.07 7.17,35.919C7.428,35.537 7.513,35.061 7.816,34.705C8.13,34.645 8.273,34.741 8.242,34.991C8.253,35.158 8.216,35.328 8.186,35.492C8.144,35.721 8.075,35.944 8.041,36.174C8.005,36.414 8.371,36.517 8.407,36.276C8.479,35.799 8.991,34.431 8.182,34.252Z" style="fill:white;fill-rule:nonzero;"/>
            </g>
            <g transform="matrix(1,0,0,1,110.5,4.5)">
                <path d="M10.207,34.415C10.331,34.285 11.187,33.719 11.179,34.148C11.168,34.7 10.317,35.237 9.782,35.115C9.869,34.84 10.064,34.565 10.207,34.415ZM10.833,35.211C11.246,34.975 11.506,34.623 11.559,34.148C11.661,33.243 10.408,33.752 10.076,34.024C9.523,34.477 9.012,35.485 9.689,36.059C10.39,36.652 11.216,35.905 11.524,35.276C11.631,35.057 11.303,34.864 11.196,35.084C10.993,35.499 10.534,36.095 10.001,35.816C9.854,35.738 9.778,35.627 9.75,35.5C10.118,35.565 10.525,35.387 10.833,35.211Z" style="fill:white;fill-rule:nonzero;"/>
            </g>
            <g transform="matrix(1,0,0,1,110.5,4.5)">
                <path d="M12.58,34.016C12.729,33.759 13.022,33.593 13.275,33.457C13.325,33.43 13.956,33.197 13.936,33.342C13.857,33.89 12.999,34.231 12.495,34.31C12.496,34.216 12.521,34.116 12.58,34.016ZM14.266,34.38C13.917,34.741 13.461,34.964 12.956,34.838C12.825,34.806 12.72,34.744 12.642,34.665C13.011,34.593 13.357,34.449 13.673,34.234C13.963,34.037 14.346,33.654 14.313,33.27C14.241,32.415 12.79,33.285 12.533,33.499C12.049,33.901 11.91,34.646 12.489,35.033C13.168,35.487 14.009,35.192 14.534,34.649C14.705,34.473 14.436,34.204 14.266,34.38Z" style="fill:white;fill-rule:nonzero;"/>
            </g>
            <g transform="matrix(1,0,0,1,110.5,4.5)">
                <path d="M16.896,33.374C16.805,33.534 16.603,33.939 16.36,33.884C16.155,33.839 16.042,33.502 15.984,33.335C15.919,33.15 15.859,32.911 15.831,32.666C16.078,32.598 16.328,32.544 16.585,32.52C16.827,32.497 16.829,32.116 16.585,32.14C16.325,32.164 16.072,32.213 15.822,32.277C15.837,32.083 15.885,31.901 15.989,31.76C16.135,31.563 15.805,31.373 15.661,31.569C15.497,31.792 15.435,32.083 15.433,32.389L15.3,32.431C15.069,32.51 15.168,32.877 15.401,32.798L15.462,32.778C15.51,33.117 15.611,33.448 15.723,33.701C15.848,33.984 16.062,34.235 16.383,34.27C16.774,34.312 17.064,33.847 17.224,33.566C17.346,33.352 17.017,33.161 16.896,33.374Z" style="fill:white;fill-rule:nonzero;"/>
            </g>
            <g transform="matrix(1,0,0,1,110.5,4.5)">
                <path d="M18.207,33.324C18.192,33.404 18.17,33.596 18.075,33.627L17.899,33.52C17.726,33.336 17.677,33.028 17.794,32.805C17.909,32.589 17.581,32.397 17.466,32.614C17.252,33.02 17.352,33.55 17.699,33.855C17.835,33.974 18.021,34.046 18.199,33.986C18.435,33.907 18.532,33.648 18.574,33.425C18.619,33.186 18.253,33.083 18.207,33.324Z" style="fill:white;fill-rule:nonzero;"/>
            </g>
            <g transform="matrix(1,0,0,1,110.5,4.5)">
                <path d="M19.93,31.654C19.66,31.661 19.489,31.766 19.375,31.922C19.295,31.833 19.145,31.811 19.081,31.949C18.855,32.434 19.07,32.935 19.077,33.441C19.079,33.651 19.404,33.706 19.45,33.491L19.456,33.441L19.457,33.441L19.456,33.439C19.518,33.03 19.385,32.204 19.843,32.052C20.412,31.862 20.325,32.881 20.291,33.185C20.263,33.428 20.644,33.425 20.671,33.185C20.734,32.624 20.718,31.631 19.93,31.654Z" style="fill:white;fill-rule:nonzero;"/>
            </g>
            <g transform="matrix(1,0,0,1,110.5,4.5)">
                <path d="M21.709,31.809C21.716,31.367 22.687,30.828 22.666,31.474C22.663,31.566 22.714,31.623 22.779,31.646C22.653,31.633 22.518,31.642 22.378,31.671C22.157,31.717 22.226,32.03 22.429,32.045C22.569,32.055 22.708,32.054 22.845,32.046L22.944,32.097C22.469,32.356 21.697,32.572 21.709,31.809ZM23.375,31.576C23.212,31.623 23.051,31.651 22.889,31.664L22.857,31.657C22.95,31.654 23.042,31.593 23.046,31.474C23.081,30.398 21.691,30.8 21.404,31.496C21.231,31.915 21.372,32.521 21.845,32.674C22.349,32.837 22.913,32.596 23.326,32.309C23.412,32.249 23.449,32.144 23.395,32.049L23.344,31.974L23.476,31.943C23.712,31.875 23.611,31.508 23.375,31.576Z" style="fill:white;fill-rule:nonzero;"/>
            </g>
            <g transform="matrix(1,0,0,1,110.5,4.5)">
                <path d="M69.612,76.373C69.45,76.665 69.13,76.745 68.818,76.746C68.895,76.567 68.691,76.412 68.563,76.487L68.563,75.48C68.661,75.246 68.88,74.752 69.203,74.827C69.458,74.886 69.6,75.217 69.669,75.438C69.762,75.74 69.768,76.091 69.612,76.373ZM69.994,75.238C69.868,74.884 69.607,74.497 69.203,74.451C68.933,74.421 68.722,74.562 68.556,74.761C68.521,74.558 68.191,74.568 68.191,74.795L68.191,77.865C68.191,78.105 68.563,78.105 68.563,77.865L68.563,77.102L68.575,77.106C69.101,77.163 69.644,77.039 69.933,76.561C70.168,76.172 70.141,75.652 69.994,75.238Z" style="fill:white;fill-rule:nonzero;"/>
            </g>
            <g transform="matrix(1,0,0,1,110.5,4.5)">
                <path d="M71.459,75.957C71.059,76.106 70.383,75.691 70.733,75.261C70.969,74.972 71.402,74.811 71.78,74.795C71.887,74.952 71.998,75.112 72.116,75.266C72.009,75.558 71.73,75.856 71.459,75.957ZM73.078,75.639C72.86,75.551 72.675,75.382 72.511,75.186C72.585,74.747 72.402,74.334 71.799,74.248C71.683,74.231 71.544,74.327 71.56,74.445C71.045,74.523 70.465,74.806 70.294,75.273C70.073,75.876 70.752,76.377 71.304,76.364C71.762,76.353 72.171,75.995 72.38,75.575C72.554,75.754 72.749,75.905 72.979,75.997C73.202,76.087 73.298,75.727 73.078,75.639Z" style="fill:white;fill-rule:nonzero;"/>
            </g>
            <g transform="matrix(1,0,0,1,110.5,4.5)">
                <path d="M75.101,74.515C74.95,74.79 74.675,75.111 74.372,74.827C74.075,74.549 74.254,74.102 74.484,73.858C74.624,73.711 74.433,73.435 74.259,73.566C73.981,73.775 73.69,73.937 73.338,73.973C73.209,73.987 73.093,74.124 73.178,74.253C73.25,74.363 73.281,74.49 73.333,74.609C73.429,74.829 73.749,74.639 73.654,74.422L73.607,74.297C73.703,74.274 73.796,74.244 73.886,74.208C73.818,74.508 73.874,74.822 74.108,75.09C74.559,75.606 75.172,75.159 75.422,74.702C75.537,74.492 75.216,74.304 75.101,74.515Z" style="fill:white;fill-rule:nonzero;"/>
            </g>
            <g transform="matrix(1,0,0,1,110.5,4.5)">
                <path d="M76.757,73.815C76.722,74.061 76.611,74.207 76.413,74.283C76.288,73.963 76.232,73.631 76.208,73.293C76.406,73.281 76.603,73.258 76.799,73.206C77.031,73.146 76.933,72.787 76.7,72.848C76.532,72.892 76.362,72.911 76.191,72.922C76.186,72.678 76.191,72.433 76.192,72.19C76.193,71.95 75.821,71.95 75.82,72.19C75.819,72.44 75.817,72.688 75.823,72.935C75.698,72.935 75.573,72.934 75.447,72.934C75.208,72.935 75.207,73.307 75.447,73.306L75.84,73.306C75.873,73.748 75.951,74.182 76.143,74.602L76.353,74.688C76.778,74.617 77.055,74.342 77.115,73.914C77.148,73.679 76.79,73.578 76.757,73.815Z" style="fill:white;fill-rule:nonzero;"/>
            </g>
            <g transform="matrix(1,0,0,1,110.5,4.5)">
                <path d="M79.449,73.983L79.445,73.91L79.401,73.668C79.373,73.506 79.338,73.343 79.271,73.191C79.141,72.901 78.857,72.693 78.525,72.776C78.276,72.838 78.1,73.018 77.984,73.248C77.967,73.144 77.956,73.04 77.959,72.934C77.968,72.694 77.596,72.695 77.587,72.934C77.574,73.316 77.722,73.678 77.808,74.049C77.807,74.228 77.83,74.399 77.873,74.541C77.932,74.742 78.238,74.705 78.238,74.492C78.238,74.376 78.222,74.262 78.201,74.149C78.196,73.675 78.343,72.927 78.801,73.168C79.185,73.369 78.898,74.077 79.261,74.304C79.465,74.432 79.651,74.11 79.449,73.983Z" style="fill:white;fill-rule:nonzero;"/>
            </g>
            <g transform="matrix(1,0,0,1,110.5,4.5)">
                <path d="M80.482,72.694C80.588,72.689 80.613,72.887 80.593,72.973C80.546,73.169 80.345,73.25 80.142,73.284C80.161,73.039 80.28,72.703 80.482,72.694ZM81.055,73.677C80.82,74.002 80.426,73.919 80.234,73.635C80.593,73.559 80.926,73.368 80.97,72.964C81.009,72.613 80.736,72.248 80.359,72.339C79.979,72.431 79.775,72.904 79.773,73.316C79.584,73.363 79.598,73.678 79.82,73.678L79.837,73.678L79.855,73.731C80.177,74.362 80.962,74.437 81.376,73.865C81.517,73.67 81.194,73.485 81.055,73.677Z" style="fill:white;fill-rule:nonzero;"/>
            </g>
            <g transform="matrix(1,0,0,1,110.5,4.5)">
                <path d="M84.125,72.282C83.966,72.634 83.661,72.96 83.241,72.843C82.711,72.696 83.299,72.049 83.479,71.887C83.638,71.743 83.433,71.489 83.253,71.594C82.996,71.745 82.569,72.104 82.271,71.828C82.151,71.717 81.958,71.794 81.953,71.959C81.945,72.249 81.984,72.518 82.059,72.797C82.122,73.029 82.481,72.931 82.418,72.699C82.38,72.556 82.356,72.417 82.341,72.276C82.474,72.308 82.609,72.299 82.743,72.261C82.613,72.573 82.629,72.902 82.99,73.136C83.56,73.504 84.219,72.976 84.446,72.47C84.544,72.253 84.223,72.063 84.125,72.282Z" style="fill:white;fill-rule:nonzero;"/>
            </g>
            <g transform="matrix(1,0,0,1,110.5,4.5)">
                <path d="M86.313,71.709C86.15,71.474 85.905,71.302 85.686,71.125C85.614,71.067 85.424,70.941 85.365,70.826C85.408,70.743 85.45,70.659 85.482,70.565C85.533,70.415 85.341,70.263 85.208,70.355C85.022,70.484 84.962,70.625 84.975,70.766C84.832,70.989 84.633,71.156 84.377,71.285C84.163,71.393 84.352,71.714 84.565,71.606C84.805,71.485 85.001,71.328 85.16,71.139L85.378,71.351C85.587,71.526 85.811,71.685 85.989,71.894C86.246,72.197 85.815,72.405 85.543,72.517L85.403,72.401C85.209,72.258 85.024,72.581 85.215,72.723L85.334,72.83L85.544,72.916C86.043,72.715 86.736,72.322 86.313,71.709Z" style="fill:white;fill-rule:nonzero;"/>
            </g>
            <g transform="matrix(1,0,0,1,110.5,4.5)">
                <path d="M39.733,21.079C39.349,21.359 38.749,21.828 38.23,21.702C37.922,21.627 37.909,21.215 37.924,20.964C37.96,20.396 38.39,19.403 39.072,19.403L39.078,19.518C39.099,19.798 39.537,19.8 39.516,19.518C39.508,19.413 39.511,19.311 39.499,19.207C39.488,19.113 39.441,19.017 39.338,18.996C38.222,18.763 37.541,20.082 37.484,21.013C37.457,21.441 37.606,21.931 38.039,22.098C38.692,22.35 39.458,21.817 39.954,21.457C40.18,21.293 39.962,20.913 39.733,21.079Z" style="fill:white;fill-rule:nonzero;"/>
            </g>
            <g transform="matrix(1,0,0,1,110.5,4.5)">
                <path d="M41.683,20.434C41.604,20.545 41.433,20.755 41.27,20.727C41.127,20.703 41.041,20.545 40.981,20.427C40.906,20.277 40.873,20.101 40.872,19.934L40.9,19.768L40.937,19.737C41.14,19.733 41.194,19.508 41.106,19.383C41.268,19.228 41.483,19.149 41.74,19.233C42.29,19.414 41.879,20.156 41.683,20.434ZM41.983,18.865C41.267,18.484 40.559,19.108 40.398,19.788L40.46,19.992C40.474,20.734 41.09,21.697 41.905,20.847C42.395,20.337 42.781,19.29 41.983,18.865Z" style="fill:white;fill-rule:nonzero;"/>
            </g>
            <g transform="matrix(1,0,0,1,110.5,4.5)">
                <path d="M46.096,17.644C45.998,17.558 45.885,17.566 45.786,17.644C45.515,17.858 45.34,18.124 45.207,18.418C45.043,18.033 44.758,17.742 44.286,17.96C44.066,18.062 43.891,18.226 43.749,18.42C43.659,18.287 43.409,18.273 43.351,18.476C43.206,18.986 43.207,19.473 43.327,19.989C43.383,20.23 43.765,20.177 43.757,19.931C43.74,19.432 43.874,18.943 44.203,18.559C44.691,17.99 44.907,18.728 44.954,19.165C44.98,19.402 45.31,19.474 45.384,19.223C45.506,18.807 45.645,18.424 45.933,18.117C46.158,18.39 46.229,18.703 46.187,19.081C46.156,19.361 46.594,19.358 46.625,19.081C46.688,18.515 46.527,18.023 46.096,17.644Z" style="fill:white;fill-rule:nonzero;"/>
            </g>
            <g transform="matrix(1,0,0,1,110.5,4.5)">
                <path d="M48.58,17.538C48.489,17.933 48.154,18.128 47.776,17.995L47.732,17.989C47.78,17.826 47.838,17.671 47.918,17.537C48.104,17.223 48.711,16.965 48.58,17.538ZM48.585,16.747C48.151,16.679 47.808,16.949 47.577,17.297L47.404,17.075C47.289,16.995 47.114,17.076 47.082,17.206L47.07,17.382C47.043,17.502 47.111,17.589 47.199,17.63C47.207,17.789 47.214,18.003 47.217,18.033L47.237,18.201C47.11,18.951 47.209,19.875 47.595,20.506C47.73,20.726 48.041,20.576 47.995,20.337C47.875,19.703 47.78,19.067 47.702,18.426C48.8,18.761 49.589,16.903 48.585,16.747Z" style="fill:white;fill-rule:nonzero;"/>
            </g>
            <g transform="matrix(1,0,0,1,110.5,4.5)">
                <path d="M50.476,17.504C50.397,17.446 50.284,17.427 50.189,17.504C49.941,17.705 49.814,17.55 49.805,17.278L49.809,17.245L49.964,17.104C50.108,17.045 50.134,16.888 50.084,16.779L50.107,16.76C50.261,16.656 50.592,16.512 50.838,16.545C50.787,16.607 50.765,16.694 50.811,16.785C50.862,16.889 50.933,16.98 51.012,17.063C50.873,17.243 50.628,17.411 50.476,17.504ZM52.123,16.673C51.992,16.872 51.831,17.013 51.586,16.944L51.537,16.922C51.564,16.781 51.551,16.639 51.478,16.504C51.093,15.792 49.989,16.149 49.577,16.652C49.447,16.812 49.38,17.018 49.372,17.226C49.28,17.668 49.61,18.164 50.209,18.082C50.557,18.034 51.08,17.71 51.359,17.315L51.521,17.38C51.937,17.498 52.286,17.221 52.501,16.894C52.656,16.658 52.277,16.439 52.123,16.673Z" style="fill:white;fill-rule:nonzero;"/>
            </g>
            <g transform="matrix(1,0,0,1,110.5,4.5)">
                <path d="M53.926,15.053C53.822,15.034 53.739,15.067 53.679,15.154C53.601,15.266 53.539,15.384 53.483,15.505C53.414,15.351 53.189,15.28 53.107,15.47C52.905,15.945 53.007,16.431 53.08,16.924C53.113,17.148 53.447,17.117 53.501,16.924C53.635,16.447 53.727,15.955 53.974,15.524C54.492,15.708 54.683,16.243 54.718,16.784C54.736,17.064 55.174,17.066 55.156,16.784C55.106,16.004 54.771,15.21 53.926,15.053Z" style="fill:white;fill-rule:nonzero;"/>
            </g>
            <g transform="matrix(1,0,0,1,110.5,4.5)">
                <path d="M56.53,15.95L56.56,15.892C57.061,15.563 57.23,15.001 57.233,14.411C57.234,14.164 56.866,14.112 56.803,14.353C56.7,14.748 56.492,15.096 56.296,15.451C56.094,15.298 55.811,15.053 55.891,14.926C56.042,14.686 55.664,14.467 55.513,14.705C55.247,15.127 55.737,15.579 56.095,15.844L56.076,15.88L56.111,16.145C56.322,16.315 56.368,16.56 56.498,16.785C56.639,17.029 57.017,16.809 56.876,16.564C56.746,16.34 56.688,16.132 56.53,15.95Z" style="fill:white;fill-rule:nonzero;"/>
            </g>
            <g transform="matrix(1,0,0,1,110.5,4.5)">
                <path d="M35.606,21.594C35.258,21.754 34.908,21.907 34.555,22.056C33.847,22.356 33.152,22.68 32.448,22.988C31.829,23.26 31.142,23.418 30.555,23.755C30.276,23.914 29.686,24.364 29.346,24.178L29.383,24.096C29.363,23.985 29.251,23.757 29.22,23.572L29.241,23.555C29.322,23.459 29.414,23.388 29.512,23.329L29.599,23.299L29.632,23.284L29.707,23.229C29.822,23.175 29.942,23.124 30.062,23.063L30.071,23.055C30.615,22.899 31.162,22.655 31.681,22.435C32.872,21.931 34.092,21.495 35.278,20.983C35.443,21.162 35.755,21.525 35.606,21.594ZM30.596,21.894C30.832,21.673 31.094,21.475 31.373,21.31L31.452,21.276L31.469,21.465L31.364,21.502C31.096,21.605 30.84,21.739 30.596,21.894ZM29.694,22.583L29.825,22.372C29.974,22.234 30.125,22.098 30.278,21.965C30.156,22.095 30.043,22.232 29.94,22.373L29.694,22.583ZM30.934,22.544L30.83,22.585C30.639,22.657 30.449,22.735 30.257,22.806L30.316,22.759C30.459,22.687 30.6,22.61 30.738,22.528L30.807,22.554L30.885,22.536L30.934,22.544ZM29.918,22.744L29.892,22.759L30.042,22.525C30.366,22.272 30.705,22.055 31.063,21.865C30.676,22.151 30.289,22.437 29.918,22.744ZM28.483,20.438C28.394,19.32 28.855,18.198 29.832,17.591C29.968,17.506 30.11,17.434 30.255,17.373C30.39,17.984 30.677,18.549 30.923,19.121C30.998,19.296 31.061,19.472 31.119,19.65C31.136,19.91 31.074,20.227 31.235,20.44L31.347,20.557L31.376,20.727L31.377,20.785L31.389,20.805L31.405,20.898C31.13,21.06 30.869,21.248 30.617,21.448C30.354,21.619 30.095,21.817 29.883,22.039C29.716,22.186 29.558,22.346 29.41,22.524L29.475,22.661L29.419,22.864L29.559,22.941L29.634,22.873L29.568,23.014L29.459,23.046C28.887,22.373 28.551,21.277 28.483,20.438ZM29.273,17.452C28.962,17.486 28.653,17.466 28.354,17.4L28.365,17.391C28.674,17.039 28.838,16.588 29.036,16.17C29.266,15.682 29.564,15.225 29.826,14.75C29.716,15.665 28.54,16.347 28.804,17.361L28.959,17.399C29.066,17.251 29.157,17.095 29.241,16.934L29.36,16.947L29.375,16.935C29.325,17.103 29.289,17.274 29.273,17.452ZM28.212,17.364L27.959,17.282L27.972,17.271C28.094,17.052 28.208,16.827 28.32,16.601C28.24,16.838 28.194,17.086 28.209,17.353L28.212,17.364ZM27.81,17.222L27.576,17.109L27.74,16.874C27.741,16.989 27.762,17.105 27.81,17.222ZM27.147,16.835L27.158,16.827C27.323,16.597 27.47,16.243 27.667,15.973C27.459,16.298 27.246,16.645 27.375,16.993L27.147,16.835ZM26.829,16.562L27.033,16.397C27.005,16.499 26.993,16.606 26.999,16.717L26.829,16.562ZM26.596,16.316L26.754,16.114C26.722,16.213 26.698,16.315 26.692,16.423L26.596,16.316ZM26.395,16.066L26.229,15.838L26.451,15.835L26.395,16.066ZM29.373,14.81C29.477,14.76 29.58,14.711 29.682,14.66C29.457,15.075 29.207,15.474 28.985,15.891C28.78,16.279 28.633,16.71 28.387,17.075C28.464,16.252 29.124,15.587 29.373,14.81ZM28.736,15.107L28.881,15.04L29.031,14.97C28.584,15.599 28.287,16.317 27.924,16.997C27.813,16.368 28.497,15.713 28.736,15.107ZM26.567,16.072L26.635,15.821L26.805,15.798C26.72,15.885 26.642,15.977 26.567,16.072ZM27.072,15.768L27.077,15.745L27.326,15.679C27.177,15.89 27.063,16.146 26.875,16.317C26.909,16.126 27.005,15.951 27.072,15.768ZM27.967,15.485C27.606,15.648 27.401,16.072 27.197,16.436C27.268,16.157 27.453,15.903 27.57,15.641L27.577,15.599C27.84,15.507 28.099,15.398 28.352,15.283C28.059,15.806 27.869,16.385 27.526,16.879C27.429,16.443 27.922,15.972 28.082,15.595L27.967,15.485ZM26.118,15.66L26.11,15.661C25.776,15.136 25.507,14.53 25.434,13.968C25.539,13.909 25.641,13.837 25.735,13.775C26.037,13.575 26.373,13.425 26.695,13.261C27.391,12.904 28.108,12.595 28.808,12.247C29.422,11.942 30.03,11.626 30.649,11.332L30.722,11.338L31.139,11.91C31.342,12.201 31.482,12.511 31.617,12.838L31.708,13.079L31.684,13.185C31.151,13.648 30.564,14.017 29.946,14.34L29.827,14.386L29.816,14.408C29.562,14.537 29.304,14.659 29.042,14.777L28.801,14.887L28.645,14.839L28.515,15.02C27.904,15.305 27.267,15.587 26.604,15.653L26.518,15.661C26.386,15.67 26.252,15.671 26.118,15.66ZM24.909,13.786L24.883,13.791C24.766,13.643 24.673,13.407 24.603,13.317L24.518,13.289C24.608,12.912 25.337,12.777 25.643,12.677C26.286,12.468 26.865,12.065 27.482,11.788C28.183,11.474 28.89,11.177 29.587,10.853C29.934,10.691 30.283,10.534 30.635,10.384C30.786,10.32 30.846,10.796 30.869,11.039C29.692,11.574 28.551,12.186 27.378,12.73C26.867,12.967 26.318,13.209 25.837,13.507L25.825,13.509C25.667,13.569 25.522,13.643 25.372,13.699L25.259,13.738C25.149,13.771 25.035,13.791 24.909,13.786ZM31.931,14.353L31.809,14.391C31.845,14.251 31.873,14.108 31.878,13.957C31.881,13.846 31.723,13.826 31.706,13.937C31.678,14.12 31.644,14.301 31.608,14.481C31.549,14.669 31.471,14.851 31.386,15.03L31.449,14.865C31.539,14.629 31.593,14.385 31.643,14.139C31.713,13.904 31.769,13.666 31.806,13.422L31.805,13.411C31.886,13.719 31.93,14.033 31.931,14.353ZM31.911,14.773C31.868,15.158 31.753,15.524 31.58,15.854C31.739,15.501 31.839,15.103 31.913,14.745L31.911,14.773ZM31.087,16.308L31.19,16.134L31.192,16.132L31.192,16.131L31.202,16.112L31.153,16.005C31.217,15.802 31.3,15.607 31.391,15.415C31.362,15.526 31.333,15.636 31.303,15.747L31.385,15.863C31.303,16.03 31.205,16.182 31.087,16.308ZM30.965,16.144L30.871,16.275L30.717,16.238L30.633,16.336C30.69,16.175 30.75,16.013 30.81,15.853C30.891,15.708 30.98,15.566 31.067,15.424C31.001,15.637 30.954,15.855 30.947,16.09L30.965,16.144ZM30.606,16.949L30.754,16.746L30.78,16.739C30.881,16.695 30.973,16.639 31.057,16.572C30.92,16.712 30.769,16.838 30.606,16.949ZM34.637,20.484L34.638,20.461C34.633,20.367 34.48,20.368 34.468,20.456L34.451,20.468L34.435,20.484C34.449,20.389 34.469,20.295 34.493,20.202L34.727,20.427L34.648,20.622L34.638,20.484L34.637,20.484ZM34.543,20.893L34.683,20.896C34.757,20.798 34.811,20.695 34.853,20.587L34.904,20.661L34.949,20.701C34.97,20.802 34.98,20.881 34.959,20.891L34.914,20.949C34.716,21.031 34.517,21.109 34.318,21.187C34.407,21.096 34.486,21.001 34.543,20.893ZM32.293,20.717C32.388,20.675 32.484,20.638 32.579,20.608C32.738,20.573 32.898,20.547 33.059,20.523C33.16,20.523 33.258,20.538 33.35,20.57L33.312,20.591C33.191,20.612 33.07,20.636 32.95,20.66L32.855,20.599C32.669,20.621 32.481,20.662 32.293,20.717ZM32.987,21.43L33.008,21.402L33.094,21.493L33.022,21.558L33.009,21.675C32.919,21.734 32.787,21.782 32.685,21.826C32.584,21.869 32.478,21.902 32.37,21.93C32.601,21.776 32.812,21.592 32.987,21.43ZM29.951,15.991L30.058,15.764C30.123,15.624 30.196,15.486 30.269,15.349C30.197,15.575 30.13,15.805 30.058,16.031L29.951,15.991ZM30.132,16.523L30.018,16.607C30.261,16.008 30.392,15.35 30.665,14.766C30.449,15.342 30.239,15.917 30.132,16.523ZM31.563,13.506L31.62,13.459C31.56,13.683 31.514,13.909 31.466,14.135C31.396,14.361 31.309,14.58 31.208,14.795C31.351,14.399 31.483,14 31.584,13.59L31.563,13.506ZM30.953,13.993C30.833,14.129 30.734,14.277 30.647,14.431L30.675,14.247L30.61,14.159C30.864,14.008 31.112,13.846 31.352,13.668C31.13,14.13 31.012,14.628 30.847,15.113C30.715,15.5 30.536,15.87 30.366,16.243C30.54,15.501 30.852,14.798 31.103,14.074C31.137,13.978 31.016,13.92 30.953,13.993ZM28.941,17.116C28.887,16.165 30.085,15.477 30.001,14.499C30.13,14.432 30.257,14.363 30.384,14.292C30.108,14.56 29.956,14.997 29.808,15.326C29.543,15.915 29.295,16.567 28.941,17.116ZM29.473,16.646L29.338,16.743C29.5,16.405 29.639,16.053 29.812,15.718C30.011,15.335 30.151,14.779 30.468,14.45C30.358,14.935 30.048,15.375 29.843,15.82C29.716,16.094 29.581,16.366 29.473,16.646ZM29.585,17.093L29.477,17.244C29.508,17.081 29.554,16.923 29.611,16.767L29.623,16.76L29.545,16.989L29.585,17.093ZM29.788,17.345L29.731,17.364L29.567,17.404C29.667,17.28 29.752,17.149 29.827,17.013L29.853,16.989C29.8,17.061 29.754,17.138 29.729,17.233L29.788,17.345ZM34.074,21.078L33.929,21.311L33.918,21.344C33.752,21.408 33.586,21.472 33.421,21.536C33.64,21.406 33.848,21.256 34.043,21.091L34.074,21.078ZM33.755,20.944C33.494,21.008 33.234,21.078 32.977,21.157L32.809,21.069L32.767,21.042L32.847,20.959L32.968,21.059C33.423,20.895 33.815,20.61 34.251,20.41C34.185,20.605 33.919,20.812 33.755,20.944ZM33.214,17.711C33.759,18.104 34.16,18.62 34.449,19.225C34.594,19.53 34.724,19.831 34.805,20.16L34.802,20.166L34.783,20.237C34.693,20.147 34.597,20.062 34.496,19.978L34.365,20.017L34.343,20.096L34.3,20.099C33.918,20.235 33.528,20.293 33.139,20.352C32.92,20.34 32.69,20.391 32.462,20.474C32.237,20.525 32.015,20.594 31.796,20.693L31.667,20.555L31.503,20.449C31.448,20.163 31.376,19.88 31.286,19.599L31.279,19.527L31.246,19.474L31.241,19.458C30.99,18.733 30.578,18.066 30.419,17.31C31.345,16.983 32.394,17.121 33.214,17.711ZM35.332,20.773L35.317,20.779L35.183,20.836L35.17,20.841C35.023,20.421 34.977,19.968 34.794,19.56C34.653,19.246 34.511,18.927 34.322,18.637C33.985,18.117 33.544,17.664 32.991,17.372C32.322,17.019 31.556,16.882 30.831,17.012C31.414,16.561 31.826,15.901 32.013,15.167C32.168,14.56 32.127,13.928 31.968,13.327L31.929,13.198L31.885,13.058C31.802,12.819 31.7,12.587 31.599,12.356C31.419,11.946 31.114,11.607 30.901,11.215L30.914,11.209L31.046,11.147L31.06,11.14L31.033,10.976C31.002,10.711 30.942,10.45 30.83,10.208L30.716,10.164C30.007,10.458 29.315,10.791 28.618,11.112C27.916,11.434 27.204,11.714 26.52,12.074C26.031,12.332 25.551,12.511 25.036,12.699C24.748,12.805 24.366,12.971 24.336,13.318L24.458,13.405L24.469,13.427C24.693,13.713 24.755,14.181 25.223,14.059L25.269,14.041C25.383,14.835 25.854,15.684 26.383,16.327L26.384,16.351L26.464,16.422C26.557,16.531 26.651,16.633 26.745,16.727C27.489,17.466 28.54,17.762 29.554,17.578C28.736,18.206 28.249,19.182 28.298,20.227C28.34,21.159 28.668,22.364 29.294,23.118L29.25,23.141C28.845,23.406 29.15,23.765 29.212,24.122L29.221,24.145L29.203,24.293C29.48,24.504 29.86,24.331 30.131,24.189C30.616,23.934 31.071,23.699 31.591,23.509C32.317,23.244 33.003,22.904 33.713,22.6C34.418,22.298 35.129,22.01 35.823,21.682L35.867,21.568C35.764,21.323 35.61,21.104 35.435,20.904L35.332,20.773Z" style="fill:white;fill-rule:nonzero;"/>
            </g>
        </g>
    </g>
</svg>
