<?xml version="1.0" encoding="UTF-8" standalone="no"?>
<!DOCTYPE svg PUBLIC "-//W3C//DTD SVG 1.1//EN" "http://www.w3.org/Graphics/SVG/1.1/DTD/svg11.dtd">
<svg width="100%" height="100%" viewBox="0 0 205 149" version="1.1" xmlns="http://www.w3.org/2000/svg" xmlns:xlink="http://www.w3.org/1999/xlink" xml:space="preserve" xmlns:serif="http://www.serif.com/" style="fill-rule:evenodd;clip-rule:evenodd;stroke-linejoin:round;stroke-miterlimit:2;">
    <g transform="matrix(1,0,0,1,-132.876,-187.724)">
        <path d="M247.184,261.983L256.578,261.983L256.519,261.881L288.493,261.881C295.103,261.881 300.47,256.514 300.47,249.904C300.47,243.294 295.103,237.927 288.493,237.927L261.422,237.927L246.988,212.927L288.493,212.927C308.901,212.927 325.47,229.496 325.47,249.904C325.47,256.52 323.728,262.733 320.68,268.107C330.791,274.769 337.47,286.227 337.47,299.232C337.47,319.79 320.779,336.481 300.221,336.481L261.336,336.481L246.902,311.481L246.905,311.481L232.761,286.983L204.869,286.983L190.51,262.112L161.984,311.521L133.777,311.521L133.282,311.235L155.432,272.869L155.432,272.869L204.451,187.966L247.184,261.983ZM261.618,286.983L275.623,311.239L275.203,311.481L300.221,311.481C306.981,311.481 312.47,305.992 312.47,299.232C312.47,292.471 306.981,286.983 300.221,286.983L261.618,286.983ZM190.585,261.983L218.327,261.983L204.456,237.957L190.585,261.983Z" style="fill:white;"/>
    </g>
</svg>
